if (_typeface_js && _typeface_js.loadFace) _typeface_js.loadFace({"glyphs":{"0":{"ha":806,"x_min":0,"x_max":0,"o":"m 404 -11 b 44 489 188 -11 44 199 b 404 986 44 779 185 986 b 763 489 622 986 763 779 b 404 -11 763 199 619 -11 z m 404 899 b 172 489 260 899 172 736 b 404 76 172 238 258 76 b 635 489 547 76 635 238 b 404 899 635 736 546 899 z "},"1":{"ha":806,"x_min":0,"x_max":0,"o":"m 368 728 l 368 126 b 328 85 368 100 354 86 l 89 74 l 89 -1 b 757 -1 313 3 535 3 l 757 74 l 526 85 b 485 126 500 86 485 100 l 485 982 l 418 982 l 411 967 b 125 764 361 871 264 803 l 140 708 b 325 776 196 721 267 746 b 360 785 338 783 349 789 b 368 728 371 781 368 764 z "},"2":{"ha":806,"x_min":0,"x_max":0,"o":"m 260 108 b 235 118 250 108 238 108 b 256 140 233 128 244 133 b 714 696 508 311 714 503 b 417 992 714 893 574 992 b 71 806 292 992 156 929 l 128 753 b 392 896 197 847 300 896 b 588 689 497 896 588 829 b 56 74 588 506 397 319 l 56 0 l 747 0 l 747 114 z "},"3":{"ha":806,"x_min":0,"x_max":0,"o":"m 672 542 b 421 615 608 599 506 631 b 401 619 415 614 404 610 b 415 640 399 626 407 632 l 683 882 l 683 975 l 89 975 l 89 867 l 511 867 b 528 861 518 867 525 868 b 518 843 531 854 525 850 l 174 525 l 231 453 b 421 535 281 504 349 535 b 643 313 569 535 643 433 b 378 83 643 169 533 83 b 93 185 282 83 179 122 l 47 118 b 390 -12 136 40 269 -12 b 765 317 583 -12 765 94 b 672 542 765 414 728 490 z "},"4":{"ha":806,"x_min":0,"x_max":0,"o":"m 611 656 l 611 363 b 579 331 611 342 600 331 l 200 331 b 174 342 185 331 178 332 b 183 368 171 350 175 358 b 535 1004 340 540 494 793 l 418 1004 b 36 331 357 785 211 515 l 36 247 l 579 247 b 611 215 600 247 611 236 l 611 0 l 729 0 l 729 656 z "},"5":{"ha":806,"x_min":0,"x_max":0,"o":"m 439 638 b 279 599 382 638 325 625 b 258 586 271 594 264 590 b 232 576 244 576 238 574 b 229 610 224 579 226 589 l 260 864 l 713 864 l 715 975 l 172 975 l 118 490 l 215 443 b 418 544 261 506 338 544 b 639 318 565 544 639 442 b 379 83 639 172 532 83 b 96 183 283 83 182 122 l 50 117 b 392 -12 135 40 269 -12 b 761 322 582 -12 761 96 b 439 638 761 510 624 638 z "},"6":{"ha":806,"x_min":0,"x_max":0,"o":"m 669 551 b 460 632 610 607 535 632 b 281 581 396 632 332 614 b 231 542 263 568 246 556 b 201 524 215 526 210 519 b 196 558 193 526 194 538 b 496 900 225 786 360 900 b 686 840 608 900 686 840 l 732 901 b 492 989 732 901 644 989 b 65 450 282 989 65 815 b 156 119 65 318 99 200 b 431 -14 222 26 329 -14 b 671 78 519 -14 608 18 b 767 317 733 140 767 228 b 669 551 767 403 735 490 z m 431 75 b 210 256 333 75 243 140 b 190 399 196 300 190 347 b 285 497 211 440 250 474 b 433 540 326 525 381 540 b 582 483 490 540 546 522 b 640 310 621 442 640 382 b 431 75 640 176 560 75 z "},"7":{"ha":806,"x_min":0,"x_max":0,"o":"m 761 975 l 92 975 l 92 863 l 568 863 b 601 857 589 863 597 865 b 585 825 606 847 599 840 b 246 0 388 599 265 283 l 375 0 b 761 907 385 306 525 689 z "},"8":{"ha":806,"x_min":0,"x_max":0,"o":"m 576 519 b 599 546 576 528 582 533 b 715 753 669 600 715 665 b 410 993 715 913 565 993 b 93 742 253 993 93 906 b 211 546 93 657 133 593 b 236 522 231 533 236 531 b 210 499 236 513 229 510 b 53 257 117 449 53 368 b 408 -17 54 90 200 -17 b 757 263 614 -17 756 96 b 603 496 758 364 704 442 b 576 519 583 506 576 511 z m 218 750 b 410 907 218 844 294 907 b 600 746 529 907 600 843 b 486 543 600 663 557 604 l 417 568 b 218 750 278 617 217 654 z m 408 71 b 172 264 275 71 172 139 b 318 494 172 368 225 433 l 397 469 b 629 261 560 415 629 365 b 408 71 629 146 547 69 z "},"9":{"ha":806,"x_min":0,"x_max":0,"o":"m 410 989 b 72 647 215 989 72 844 b 189 404 72 539 119 456 b 385 340 244 361 315 340 b 600 428 465 340 543 368 b 629 446 615 443 622 447 b 635 414 638 443 638 435 b 335 74 621 218 510 74 b 133 138 268 74 199 96 l 93 72 b 344 -12 168 17 256 -12 b 621 101 444 -12 546 24 b 764 519 708 189 764 332 b 410 989 764 806 639 989 z m 261 492 b 197 658 218 533 197 594 b 410 903 197 778 272 903 b 619 719 513 903 589 838 b 639 572 635 674 639 624 b 414 436 594 481 503 436 b 261 492 357 436 301 454 z "},"A":{"ha":964,"x_min":0,"x_max":0,"o":"m 800 0 l 931 0 l 539 975 l 425 975 l 33 0 l 136 0 l 260 317 l 675 317 z m 293 404 l 447 801 b 464 853 451 814 458 832 l 465 853 b 482 801 472 833 478 813 l 640 404 z "},"Á":{"ha":964,"x_min":0,"x_max":0,"o":"m 608 1218 l 482 1218 l 415 1046 l 476 1046 z m 800 0 l 931 0 l 539 975 l 425 975 l 33 0 l 136 0 l 260 317 l 675 317 z m 293 404 l 447 801 b 464 853 451 814 458 832 l 465 853 b 482 801 472 833 478 813 l 640 404 z "},"Ă":{"ha":964,"x_min":0,"x_max":0,"o":"m 668 1224 b 483 1040 671 1122 599 1040 b 299 1224 365 1040 296 1122 l 361 1224 b 483 1122 361 1167 408 1122 b 604 1224 558 1122 604 1167 z m 800 0 l 931 0 l 539 975 l 425 975 l 33 0 l 136 0 l 260 317 l 675 317 z m 293 404 l 447 801 b 464 853 451 814 458 832 l 465 853 b 482 801 472 833 478 813 l 640 404 z "},"Â":{"ha":964,"x_min":0,"x_max":0,"o":"m 483 1142 l 622 1044 l 683 1044 l 504 1229 l 461 1229 l 283 1044 l 336 1044 z m 539 975 l 425 975 l 33 0 l 136 0 l 260 317 l 675 317 l 800 0 l 931 0 z m 293 404 l 447 801 b 464 853 451 814 458 832 l 465 853 b 482 801 472 833 478 813 l 640 404 z "},"Ä":{"ha":964,"x_min":0,"x_max":0,"o":"m 336 1065 b 410 1139 376 1065 410 1099 b 336 1213 410 1179 376 1213 b 263 1139 296 1213 263 1179 b 336 1065 263 1099 296 1065 z m 618 1065 b 692 1139 658 1065 692 1099 b 618 1213 692 1179 658 1213 b 544 1139 578 1213 544 1179 b 618 1065 544 1099 578 1065 z m 800 0 l 931 0 l 539 975 l 425 975 l 33 0 l 136 0 l 260 317 l 675 317 z m 293 404 l 447 801 b 464 853 451 814 458 832 l 465 853 b 482 801 472 833 478 813 l 640 404 z "},"À":{"ha":964,"x_min":0,"x_max":0,"o":"m 342 1218 l 474 1046 l 535 1046 l 468 1218 z m 800 0 l 931 0 l 539 975 l 425 975 l 33 0 l 136 0 l 260 317 l 675 317 z m 293 404 l 447 801 b 464 853 451 814 458 832 l 465 853 b 482 801 472 833 478 813 l 640 404 z "},"Ā":{"ha":964,"x_min":0,"x_max":0,"o":"m 256 1151 l 256 1075 l 713 1075 l 713 1151 z m 800 0 l 931 0 l 539 975 l 425 975 l 33 0 l 136 0 l 260 317 l 675 317 z m 293 404 l 447 801 b 464 853 451 814 458 832 l 465 853 b 482 801 472 833 478 813 l 640 404 z "},"Ą":{"ha":964,"x_min":0,"x_max":0,"o":"m 961 -182 b 863 -219 931 -206 894 -219 b 793 -150 824 -219 793 -197 b 932 0 793 -79 872 -25 l 931 0 l 539 975 l 425 975 l 33 0 l 136 0 l 260 317 l 675 317 l 800 0 l 847 0 b 692 -162 789 -19 692 -65 b 833 -279 692 -240 760 -279 b 968 -231 881 -279 932 -262 z m 293 404 l 447 801 b 464 853 451 814 458 832 l 465 853 b 482 801 472 833 478 813 l 640 404 z "},"Å":{"ha":964,"x_min":0,"x_max":0,"o":"m 611 1149 b 483 1044 611 1081 558 1044 b 356 1149 408 1044 356 1081 b 483 1257 356 1219 408 1257 b 611 1149 558 1257 611 1221 z m 550 1149 b 483 1213 551 1186 525 1213 b 417 1149 443 1213 417 1188 b 483 1089 417 1113 443 1089 b 550 1149 524 1089 551 1111 z m 800 0 l 931 0 l 539 975 l 425 975 l 33 0 l 136 0 l 260 317 l 675 317 z m 293 404 l 447 801 b 464 853 451 814 458 832 l 465 853 b 482 801 472 833 478 813 l 640 404 z "},"Ã":{"ha":964,"x_min":0,"x_max":0,"o":"m 347 1044 l 293 1044 b 404 1194 297 1131 336 1194 b 497 1156 436 1194 465 1174 b 568 1122 524 1139 549 1122 b 619 1189 590 1122 611 1138 l 674 1189 b 561 1039 671 1101 633 1039 b 464 1078 529 1039 494 1058 b 394 1111 436 1096 417 1111 b 347 1044 369 1111 353 1090 z m 800 0 l 931 0 l 539 975 l 425 975 l 33 0 l 136 0 l 260 317 l 675 317 z m 293 404 l 447 801 b 464 853 451 814 458 832 l 465 853 b 482 801 472 833 478 813 l 640 404 z "},"Æ":{"ha":1274,"x_min":0,"x_max":0,"o":"m 1194 886 l 1194 975 l 513 975 l 3 0 l 115 0 l 181 128 b 383 372 240 244 294 311 b 614 453 458 424 539 449 l 614 0 l 1194 0 l 1194 92 l 738 92 l 738 456 l 1147 456 l 1147 549 l 738 549 l 738 886 z m 614 536 b 385 463 536 532 453 506 b 335 426 367 453 350 439 l 563 876 b 594 904 574 897 581 904 b 614 878 606 904 614 896 z "},"B":{"ha":914,"x_min":0,"x_max":0,"o":"m 122 975 l 122 0 l 514 0 b 850 269 729 0 850 108 b 783 438 850 343 824 399 b 667 500 750 469 710 489 b 660 511 663 501 660 506 b 669 525 660 517 663 521 b 769 597 706 542 742 564 b 813 728 796 629 813 671 b 739 896 813 794 788 853 b 481 975 682 946 594 975 z m 247 892 l 482 892 b 682 710 604 892 682 822 b 482 540 682 604 611 540 l 247 540 z m 247 456 l 514 456 b 718 274 640 456 718 379 b 514 83 718 178 654 83 l 247 83 z "},"C":{"ha":956,"x_min":0,"x_max":0,"o":"m 821 211 b 538 79 821 211 729 79 b 203 485 332 79 203 236 b 533 897 203 733 329 897 b 818 753 728 897 818 753 l 881 806 b 528 989 881 806 776 989 b 67 488 257 989 67 781 b 526 -14 67 193 260 -14 b 883 161 775 -14 883 161 z "},"Ć":{"ha":956,"x_min":0,"x_max":0,"o":"m 653 1218 l 526 1218 l 460 1046 l 521 1046 z m 821 211 b 538 79 821 211 729 79 b 203 485 332 79 203 236 b 533 897 203 733 329 897 b 818 753 728 897 818 753 l 881 806 b 528 989 881 806 776 989 b 67 488 257 989 67 781 b 526 -14 67 193 260 -14 b 883 161 775 -14 883 161 z "},"Č":{"ha":956,"x_min":0,"x_max":0,"o":"m 547 1044 l 729 1229 l 672 1229 l 526 1136 l 390 1229 l 324 1229 l 504 1044 z m 821 211 b 538 79 821 211 729 79 b 203 485 332 79 203 236 b 533 897 203 733 329 897 b 818 753 728 897 818 753 l 881 806 b 528 989 881 806 776 989 b 67 488 257 989 67 781 b 526 -14 67 193 260 -14 b 883 161 775 -14 883 161 z "},"Ç":{"ha":956,"x_min":0,"x_max":0,"o":"m 563 -12 b 883 161 785 3 883 161 l 821 211 b 538 79 821 211 729 79 b 203 485 332 79 203 236 b 533 897 203 733 329 897 b 818 753 728 897 818 753 l 881 806 b 528 989 881 806 776 989 b 67 488 257 989 67 781 b 497 -12 67 204 246 1 l 438 -97 l 479 -135 b 540 -111 496 -119 518 -111 b 601 -167 578 -111 601 -133 b 529 -222 601 -200 574 -222 b 415 -178 493 -222 449 -206 l 386 -214 b 546 -282 429 -261 490 -282 b 689 -171 622 -282 689 -243 b 571 -60 689 -106 640 -60 b 553 -61 565 -60 558 -60 b 542 -60 547 -61 543 -61 b 542 -46 539 -57 539 -51 z "},"Ċ":{"ha":956,"x_min":0,"x_max":0,"o":"m 526 1064 b 606 1143 571 1064 606 1100 b 526 1222 606 1188 571 1222 b 447 1143 483 1222 447 1188 b 526 1064 447 1100 483 1064 z m 821 211 b 538 79 821 211 729 79 b 203 485 332 79 203 236 b 533 897 203 733 329 897 b 818 753 728 897 818 753 l 881 806 b 528 989 881 806 776 989 b 67 488 257 989 67 781 b 526 -14 67 193 260 -14 b 883 161 775 -14 883 161 z "},"D":{"ha":1004,"x_min":0,"x_max":0,"o":"m 125 975 l 125 0 l 389 0 b 782 115 551 0 686 35 b 938 485 879 199 938 331 b 782 856 938 640 879 772 b 389 975 686 940 551 975 z m 250 889 l 397 889 b 693 793 525 889 626 858 b 801 485 764 725 801 618 b 693 178 801 353 764 247 b 397 86 626 115 525 86 l 250 86 z "},"Ð":{"ha":1004,"x_min":0,"x_max":0,"o":"m 782 856 b 389 975 686 940 551 975 l 125 975 l 125 543 l 0 543 l 0 450 l 125 450 l 125 0 l 389 0 b 782 115 551 0 686 35 b 938 485 879 199 938 331 b 782 856 938 640 879 772 z m 693 178 b 397 86 626 115 525 86 l 250 86 l 250 450 l 518 450 l 518 543 l 250 543 l 250 889 l 397 889 b 693 793 525 889 626 858 b 801 485 764 725 801 618 b 693 178 801 353 764 247 z "},"Ď":{"ha":1004,"x_min":0,"x_max":0,"o":"m 471 1044 l 653 1229 l 596 1229 l 450 1136 l 314 1229 l 247 1229 l 428 1044 z m 782 856 b 389 975 686 940 551 975 l 125 975 l 125 0 l 389 0 b 782 115 551 0 686 35 b 938 485 879 199 938 331 b 782 856 938 640 879 772 z m 693 178 b 397 86 626 115 525 86 l 250 86 l 250 889 l 397 889 b 693 793 525 889 626 858 b 801 485 764 725 801 618 b 693 178 801 353 764 247 z "},"Đ":{"ha":1004,"x_min":0,"x_max":0,"o":"m 782 856 b 389 975 686 940 551 975 l 125 975 l 125 543 l 0 543 l 0 450 l 125 450 l 125 0 l 389 0 b 782 115 551 0 686 35 b 938 485 879 199 938 331 b 782 856 938 640 879 772 z m 693 178 b 397 86 626 115 525 86 l 250 86 l 250 450 l 518 450 l 518 543 l 250 543 l 250 889 l 397 889 b 693 793 525 889 626 858 b 801 485 764 725 801 618 b 693 178 801 353 764 247 z "},"E":{"ha":831,"x_min":0,"x_max":0,"o":"m 125 975 l 125 0 l 744 0 l 744 92 l 250 92 l 250 456 l 697 456 l 697 549 l 250 549 l 250 886 l 744 886 l 744 975 z "},"É":{"ha":831,"x_min":0,"x_max":0,"o":"m 576 1218 l 450 1218 l 383 1046 l 444 1046 z m 125 975 l 125 0 l 744 0 l 744 92 l 250 92 l 250 456 l 697 456 l 697 549 l 250 549 l 250 886 l 744 886 l 744 975 z "},"Ě":{"ha":831,"x_min":0,"x_max":0,"o":"m 471 1044 l 653 1229 l 596 1229 l 450 1136 l 314 1229 l 247 1229 l 428 1044 z m 744 886 l 744 975 l 125 975 l 125 0 l 744 0 l 744 92 l 250 92 l 250 456 l 697 456 l 697 549 l 250 549 l 250 886 z "},"Ê":{"ha":831,"x_min":0,"x_max":0,"o":"m 450 1142 l 589 1044 l 650 1044 l 471 1229 l 428 1229 l 250 1044 l 303 1044 z m 744 886 l 744 975 l 125 975 l 125 0 l 744 0 l 744 92 l 250 92 l 250 456 l 697 456 l 697 549 l 250 549 l 250 886 z "},"Ë":{"ha":831,"x_min":0,"x_max":0,"o":"m 304 1065 b 378 1139 344 1065 378 1099 b 304 1213 378 1179 344 1213 b 231 1139 264 1213 231 1179 b 304 1065 231 1099 264 1065 z m 586 1065 b 660 1139 626 1065 660 1099 b 586 1213 660 1179 626 1213 b 513 1139 546 1213 513 1179 b 586 1065 513 1099 546 1065 z m 125 975 l 125 0 l 744 0 l 744 92 l 250 92 l 250 456 l 697 456 l 697 549 l 250 549 l 250 886 l 744 886 l 744 975 z "},"Ė":{"ha":831,"x_min":0,"x_max":0,"o":"m 450 1064 b 529 1143 494 1064 529 1100 b 450 1222 529 1188 494 1222 b 371 1143 407 1222 371 1188 b 450 1064 371 1100 407 1064 z m 125 975 l 125 0 l 744 0 l 744 92 l 250 92 l 250 456 l 697 456 l 697 549 l 250 549 l 250 886 l 744 886 l 744 975 z "},"È":{"ha":831,"x_min":0,"x_max":0,"o":"m 310 1218 l 442 1046 l 503 1046 l 436 1218 z m 125 975 l 125 0 l 744 0 l 744 92 l 250 92 l 250 456 l 697 456 l 697 549 l 250 549 l 250 886 l 744 886 l 744 975 z "},"Ē":{"ha":831,"x_min":0,"x_max":0,"o":"m 222 1151 l 222 1075 l 679 1075 l 679 1151 z m 125 975 l 125 0 l 744 0 l 744 92 l 250 92 l 250 456 l 697 456 l 697 549 l 250 549 l 250 886 l 744 886 l 744 975 z "},"Ę":{"ha":831,"x_min":0,"x_max":0,"o":"m 763 -168 b 664 -206 732 -192 696 -206 b 594 -136 625 -206 594 -183 b 704 0 594 -76 651 -29 l 744 0 l 744 92 l 250 92 l 250 456 l 697 456 l 697 549 l 250 549 l 250 886 l 744 886 l 744 975 l 125 975 l 125 0 l 613 0 b 493 -149 557 -25 493 -69 b 635 -265 493 -226 561 -265 b 769 -217 682 -265 733 -249 z "},"F":{"ha":765,"x_min":0,"x_max":0,"o":"m 250 436 l 683 436 l 683 526 l 250 526 l 250 886 l 714 886 l 714 975 l 125 975 l 125 0 l 250 0 z "},"G":{"ha":1042,"x_min":0,"x_max":0,"o":"m 67 486 b 524 -14 67 196 253 -14 b 765 65 643 -14 726 39 b 811 89 789 82 799 89 b 838 64 822 89 832 81 l 857 0 l 938 0 l 938 496 l 818 496 l 815 268 b 743 144 815 207 786 175 b 535 78 694 110 624 78 b 201 483 324 78 201 236 b 544 897 201 738 332 897 b 835 753 738 897 835 753 l 899 804 b 535 989 899 804 796 989 b 67 486 258 989 67 779 z "},"Ğ":{"ha":1042,"x_min":0,"x_max":0,"o":"m 721 1224 b 536 1040 724 1122 651 1040 b 351 1224 418 1040 349 1122 l 414 1224 b 536 1122 414 1167 461 1122 b 657 1224 611 1122 657 1167 z m 67 486 b 524 -14 67 196 253 -14 b 765 65 643 -14 726 39 b 811 89 789 82 799 89 b 838 64 822 89 832 81 l 857 0 l 938 0 l 938 496 l 818 496 l 815 268 b 743 144 815 207 786 175 b 535 78 694 110 624 78 b 201 483 324 78 201 236 b 544 897 201 738 332 897 b 835 753 738 897 835 753 l 899 804 b 535 989 899 804 796 989 b 67 486 258 989 67 779 z "},"Ģ":{"ha":1039,"x_min":0,"x_max":0,"o":"m 67 486 b 524 -14 67 196 253 -14 b 765 65 643 -14 726 39 b 811 89 789 82 799 89 b 838 64 822 89 832 81 l 857 0 l 938 0 l 938 496 l 818 496 l 815 268 b 743 144 815 207 786 175 b 535 78 694 110 624 78 b 201 483 324 78 201 236 b 544 897 201 738 332 897 b 835 753 738 897 835 753 l 899 804 b 535 989 899 804 796 989 b 67 486 258 989 67 779 z m 538 -58 b 511 -181 464 -58 447 -153 b 542 -222 525 -190 547 -193 b 461 -272 538 -237 511 -261 l 471 -311 b 615 -158 590 -287 615 -212 b 538 -58 615 -101 588 -58 z "},"Ġ":{"ha":1042,"x_min":0,"x_max":0,"o":"m 536 1064 b 615 1143 581 1064 615 1100 b 536 1222 615 1188 581 1222 b 457 1143 493 1222 457 1188 b 536 1064 457 1100 493 1064 z m 67 486 b 524 -14 67 196 253 -14 b 765 65 643 -14 726 39 b 811 89 789 82 799 89 b 838 64 822 89 832 81 l 857 0 l 938 0 l 938 496 l 818 496 l 815 268 b 743 144 815 207 786 175 b 535 78 694 110 624 78 b 201 483 324 78 201 236 b 544 897 201 738 332 897 b 835 753 738 897 835 753 l 899 804 b 535 989 899 804 796 989 b 67 486 258 989 67 779 z "},"H":{"ha":1054,"x_min":0,"x_max":0,"o":"m 806 454 l 806 0 l 929 0 l 929 975 l 806 975 l 806 544 l 250 544 l 250 975 l 125 975 l 125 0 l 250 0 l 250 454 z "},"Ħ":{"ha":1054,"x_min":0,"x_max":0,"o":"m 806 975 l 806 821 l 250 821 l 250 975 l 125 975 l 125 0 l 250 0 l 250 454 l 806 454 l 806 0 l 929 0 l 929 975 z m 250 544 l 250 733 l 806 733 l 806 544 z "},"I":{"ha":413,"x_min":0,"x_max":0,"o":"m 269 0 l 269 975 l 143 975 l 143 0 z "},"Í":{"ha":413,"x_min":0,"x_max":0,"o":"m 333 1218 l 207 1218 l 140 1046 l 201 1046 z m 269 0 l 269 975 l 143 975 l 143 0 z "},"Î":{"ha":413,"x_min":0,"x_max":0,"o":"m 228 1229 l 185 1229 l 7 1044 l 60 1044 l 207 1142 l 346 1044 l 407 1044 z m 143 0 l 269 0 l 269 975 l 143 975 z "},"Ï":{"ha":413,"x_min":0,"x_max":0,"o":"m 61 1065 b 135 1139 101 1065 135 1099 b 61 1213 135 1179 101 1213 b -12 1139 21 1213 -12 1179 b 61 1065 -12 1099 21 1065 z m 343 1065 b 417 1139 383 1065 417 1099 b 343 1213 417 1179 383 1213 b 269 1139 303 1213 269 1179 b 343 1065 269 1099 303 1065 z m 269 0 l 269 975 l 143 975 l 143 0 z "},"İ":{"ha":413,"x_min":0,"x_max":0,"o":"m 207 1064 b 286 1143 251 1064 286 1100 b 207 1222 286 1188 251 1222 b 128 1143 164 1222 128 1188 b 207 1064 128 1100 164 1064 z m 269 0 l 269 975 l 143 975 l 143 0 z "},"Ì":{"ha":413,"x_min":0,"x_max":0,"o":"m 67 1218 l 199 1046 l 260 1046 l 193 1218 z m 269 0 l 269 975 l 143 975 l 143 0 z "},"Ī":{"ha":413,"x_min":0,"x_max":0,"o":"m -21 1151 l -21 1075 l 436 1075 l 436 1151 z m 269 0 l 269 975 l 143 975 l 143 0 z "},"Į":{"ha":413,"x_min":0,"x_max":0,"o":"m 300 -182 b 201 -219 269 -206 233 -219 b 132 -150 163 -219 132 -197 b 271 0 132 -79 211 -25 l 269 0 l 269 975 l 143 975 l 143 0 l 186 0 b 31 -162 128 -19 31 -65 b 172 -279 31 -240 99 -279 b 307 -231 219 -279 271 -262 z "},"J":{"ha":583,"x_min":0,"x_max":0,"o":"m 458 251 l 458 975 l 333 975 l 333 249 b 165 71 333 118 257 71 b 44 97 128 71 90 81 l 21 28 b 200 -11 78 3 140 -11 b 458 251 338 -11 458 63 z "},"K":{"ha":947,"x_min":0,"x_max":0,"o":"m 567 539 b 544 604 550 564 542 585 b 567 649 546 619 553 633 l 868 975 l 751 975 b 442 647 675 894 544 757 b 242 417 372 574 299 497 b 249 501 246 447 249 479 l 249 975 l 125 975 l 125 0 l 249 0 l 249 169 b 374 438 249 288 285 336 l 467 543 b 506 422 467 506 481 460 l 776 0 l 915 0 z "},"Ķ":{"ha":947,"x_min":0,"x_max":0,"o":"m 567 539 b 544 604 550 564 542 585 b 567 649 546 619 553 633 l 868 975 l 751 975 b 442 647 675 894 544 757 b 242 417 372 574 299 497 b 249 501 246 447 249 479 l 249 975 l 125 975 l 125 0 l 249 0 l 249 169 b 374 438 249 288 285 336 l 467 543 b 506 422 467 506 481 460 l 776 0 l 915 0 z m 464 -58 b 438 -181 390 -58 374 -153 b 468 -222 451 -190 474 -193 b 388 -272 464 -237 438 -261 l 397 -311 b 542 -158 517 -287 542 -212 b 464 -58 542 -101 514 -58 z "},"L":{"ha":769,"x_min":0,"x_max":0,"o":"m 250 90 l 250 975 l 125 975 l 125 0 l 728 0 l 728 90 z "},"Ĺ":{"ha":769,"x_min":0,"x_max":0,"o":"m 507 1218 l 381 1218 l 314 1046 l 375 1046 z m 250 90 l 250 975 l 125 975 l 125 0 l 728 0 l 728 90 z "},"Ľ":{"ha":769,"x_min":0,"x_max":0,"o":"m 250 90 l 250 975 l 125 975 l 125 0 l 728 0 l 728 90 z m 549 975 l 422 975 l 356 801 l 417 801 z "},"Ļ":{"ha":769,"x_min":0,"x_max":0,"o":"m 250 90 l 250 975 l 125 975 l 125 0 l 728 0 l 728 90 z m 418 -58 b 392 -181 344 -58 328 -153 b 422 -222 406 -190 428 -193 b 342 -272 418 -237 392 -261 l 351 -311 b 496 -158 471 -287 496 -212 b 418 -58 496 -101 468 -58 z "},"Ł":{"ha":769,"x_min":0,"x_max":0,"o":"m 250 90 l 250 424 l 468 544 l 468 636 l 250 515 l 250 975 l 125 975 l 125 446 l 0 376 l 0 285 l 125 354 l 125 0 l 728 0 l 728 90 z "},"M":{"ha":1215,"x_min":0,"x_max":0,"o":"m 946 975 l 667 474 b 625 396 649 443 638 418 b 585 468 614 417 600 440 l 281 975 l 125 975 l 125 0 l 226 0 l 226 776 b 224 853 226 794 225 824 b 261 781 236 825 250 799 l 568 261 l 644 261 l 939 792 b 971 853 949 807 960 831 b 968 790 968 829 968 806 l 968 0 l 1090 0 l 1090 975 z "},"N":{"ha":1019,"x_min":0,"x_max":0,"o":"m 810 975 l 810 268 b 813 178 810 244 811 207 b 765 256 796 206 781 233 l 249 975 l 115 975 l 115 0 l 210 0 l 210 775 b 208 832 210 788 208 810 b 246 767 222 806 236 779 l 796 0 l 904 0 l 904 975 z "},"Ń":{"ha":1019,"x_min":0,"x_max":0,"o":"m 636 1218 l 510 1218 l 443 1046 l 504 1046 z m 810 975 l 810 268 b 813 178 810 244 811 207 b 765 256 796 206 781 233 l 249 975 l 115 975 l 115 0 l 210 0 l 210 775 b 208 832 210 788 208 810 b 246 767 222 806 236 779 l 796 0 l 904 0 l 904 975 z "},"Ň":{"ha":1019,"x_min":0,"x_max":0,"o":"m 531 1044 l 713 1229 l 656 1229 l 510 1136 l 374 1229 l 307 1229 l 488 1044 z m 810 975 l 810 268 b 813 178 810 244 811 207 b 765 256 796 206 781 233 l 249 975 l 115 975 l 115 0 l 210 0 l 210 775 b 208 832 210 788 208 810 b 246 767 222 806 236 779 l 796 0 l 904 0 l 904 975 z "},"Ņ":{"ha":1019,"x_min":0,"x_max":0,"o":"m 810 975 l 810 268 b 813 178 810 244 811 207 b 765 256 796 206 781 233 l 249 975 l 115 975 l 115 0 l 210 0 l 210 775 b 208 832 210 788 208 810 b 246 767 222 806 236 779 l 796 0 l 904 0 l 904 975 z m 540 -58 b 514 -181 467 -58 450 -153 b 544 -222 528 -190 550 -193 b 464 -272 540 -237 514 -261 l 474 -311 b 618 -158 593 -287 618 -212 b 540 -58 618 -101 590 -58 z "},"Ŋ":{"ha":1019,"x_min":0,"x_max":0,"o":"m 810 975 l 810 268 b 813 178 810 247 811 210 b 765 256 796 207 781 233 l 249 975 l 115 975 l 115 0 l 210 0 l 210 775 b 208 832 210 788 208 808 b 246 767 222 806 236 779 l 799 -4 l 799 -68 b 701 -193 799 -162 761 -193 b 660 -187 678 -193 660 -187 l 647 -246 b 747 -265 672 -257 706 -265 b 904 -74 831 -265 904 -212 l 904 0 l 904 975 z "},"Ñ":{"ha":1019,"x_min":0,"x_max":0,"o":"m 421 1111 b 490 1078 443 1111 463 1096 b 588 1039 521 1058 556 1039 b 700 1189 660 1039 697 1101 l 646 1189 b 594 1122 638 1138 617 1122 b 524 1156 575 1122 550 1139 b 431 1194 492 1174 463 1194 b 319 1044 363 1194 324 1131 l 374 1044 b 421 1111 379 1090 396 1111 z m 810 975 l 810 268 b 813 178 810 244 811 207 b 765 256 796 206 781 233 l 249 975 l 115 975 l 115 0 l 210 0 l 210 775 b 208 832 210 788 208 810 b 246 767 222 806 236 779 l 796 0 l 904 0 l 904 975 z "},"O":{"ha":1056,"x_min":0,"x_max":0,"o":"m 989 489 b 528 989 989 781 804 989 b 67 489 251 989 67 781 b 528 -14 67 196 254 -14 b 989 489 801 -14 989 196 z m 854 486 b 526 76 854 235 728 76 b 200 485 325 76 200 236 b 531 899 200 738 326 899 b 854 486 742 899 854 726 z "},"Ó":{"ha":1056,"x_min":0,"x_max":0,"o":"m 654 1218 l 528 1218 l 461 1046 l 522 1046 z m 989 489 b 528 989 989 781 804 989 b 67 489 251 989 67 781 b 528 -14 67 196 254 -14 b 989 489 801 -14 989 196 z m 854 486 b 526 76 854 235 728 76 b 200 485 325 76 200 236 b 531 899 200 738 326 899 b 854 486 742 899 854 726 z "},"Ô":{"ha":1056,"x_min":0,"x_max":0,"o":"m 528 1142 l 667 1044 l 728 1044 l 549 1229 l 506 1229 l 328 1044 l 381 1044 z m 528 989 b 67 489 251 989 67 781 b 528 -14 67 196 254 -14 b 989 489 801 -14 989 196 b 528 989 989 781 804 989 z m 526 76 b 200 485 325 76 200 236 b 531 899 200 738 326 899 b 854 486 742 899 854 726 b 526 76 854 235 728 76 z "},"Ö":{"ha":1056,"x_min":0,"x_max":0,"o":"m 382 1065 b 456 1139 422 1065 456 1099 b 382 1213 456 1179 422 1213 b 308 1139 342 1213 308 1179 b 382 1065 308 1099 342 1065 z m 664 1065 b 738 1139 704 1065 738 1099 b 664 1213 738 1179 704 1213 b 590 1139 624 1213 590 1179 b 664 1065 590 1099 624 1065 z m 989 489 b 528 989 989 781 804 989 b 67 489 251 989 67 781 b 528 -14 67 196 254 -14 b 989 489 801 -14 989 196 z m 854 486 b 526 76 854 235 728 76 b 200 485 325 76 200 236 b 531 899 200 738 326 899 b 854 486 742 899 854 726 z "},"Ò":{"ha":1056,"x_min":0,"x_max":0,"o":"m 388 1218 l 519 1046 l 581 1046 l 514 1218 z m 989 489 b 528 989 989 781 804 989 b 67 489 251 989 67 781 b 528 -14 67 196 254 -14 b 989 489 801 -14 989 196 z m 854 486 b 526 76 854 235 728 76 b 200 485 325 76 200 236 b 531 899 200 738 326 899 b 854 486 742 899 854 726 z "},"Ő":{"ha":1056,"x_min":0,"x_max":0,"o":"m 550 1218 l 424 1218 l 357 1046 l 418 1046 z m 740 1218 l 614 1218 l 547 1046 l 608 1046 z m 989 489 b 528 989 989 781 804 989 b 67 489 251 989 67 781 b 528 -14 67 196 254 -14 b 989 489 801 -14 989 196 z m 854 486 b 526 76 854 235 728 76 b 200 485 325 76 200 236 b 531 899 200 738 326 899 b 854 486 742 899 854 726 z "},"Ō":{"ha":1056,"x_min":0,"x_max":0,"o":"m 300 1151 l 300 1075 l 757 1075 l 757 1151 z m 989 489 b 528 989 989 781 804 989 b 67 489 251 989 67 781 b 528 -14 67 196 254 -14 b 989 489 801 -14 989 196 z m 854 486 b 526 76 854 235 728 76 b 200 485 325 76 200 236 b 531 899 200 738 326 899 b 854 486 742 899 854 726 z "},"Ø":{"ha":1056,"x_min":0,"x_max":0,"o":"m 528 989 b 67 489 251 989 67 781 b 528 -15 67 194 254 -15 b 989 489 801 -15 989 194 b 528 989 989 781 804 989 z m 532 899 b 769 786 635 899 715 857 l 243 260 b 201 485 215 322 201 399 b 532 899 201 738 328 899 z m 528 75 b 288 188 426 75 344 115 l 813 713 b 856 486 840 649 856 572 b 528 75 856 233 729 75 z "},"Õ":{"ha":1056,"x_min":0,"x_max":0,"o":"m 392 1044 l 338 1044 b 449 1194 342 1131 381 1194 b 542 1156 481 1194 510 1174 b 613 1122 568 1139 593 1122 b 664 1189 635 1122 656 1138 l 718 1189 b 606 1039 715 1101 678 1039 b 508 1078 574 1039 539 1058 b 439 1111 481 1096 461 1111 b 392 1044 414 1111 397 1090 z m 989 489 b 528 989 989 781 804 989 b 67 489 251 989 67 781 b 528 -14 67 196 254 -14 b 989 489 801 -14 989 196 z m 854 486 b 526 76 854 235 728 76 b 200 485 325 76 200 236 b 531 899 200 738 326 899 b 854 486 742 899 854 726 z "},"Œ":{"ha":1304,"x_min":0,"x_max":0,"o":"m 1211 886 l 1211 975 l 658 975 l 533 975 b 72 489 257 975 72 772 b 533 0 72 203 260 0 l 639 0 l 1211 0 l 1211 92 l 764 92 l 764 456 l 1164 456 l 1164 549 l 764 549 l 764 886 z m 532 89 b 206 485 331 89 206 243 b 536 886 206 729 332 886 l 639 886 l 639 89 z "},"P":{"ha":867,"x_min":0,"x_max":0,"o":"m 479 975 l 125 975 l 125 0 l 251 0 l 251 389 l 479 389 b 744 479 597 389 686 421 b 819 682 793 528 819 597 b 742 888 819 771 790 840 b 479 975 688 940 601 975 z m 481 474 l 251 474 l 251 892 l 481 892 b 689 682 626 892 689 786 b 481 474 689 578 625 474 z "},"Þ":{"ha":832,"x_min":0,"x_max":0,"o":"m 692 772 b 429 860 638 825 551 860 l 249 860 l 249 1014 l 122 1014 l 122 0 l 249 0 l 249 274 l 429 274 b 694 364 547 274 636 306 b 769 567 743 413 769 482 b 692 772 769 656 740 725 z m 431 358 l 249 358 l 249 776 l 431 776 b 639 567 576 776 639 671 b 431 358 639 463 575 358 z "},"Q":{"ha":1057,"x_min":0,"x_max":0,"o":"m 378 -144 b 471 -103 401 -122 435 -104 b 656 -158 531 -103 590 -132 b 868 -217 726 -186 800 -218 b 993 -136 932 -215 975 -174 l 949 -92 b 876 -122 931 -107 907 -122 b 697 -67 831 -122 776 -99 b 592 -31 664 -54 628 -42 b 583 -21 588 -29 583 -26 b 596 -11 583 -15 588 -12 b 989 489 832 22 989 219 b 528 989 989 781 804 989 b 67 489 251 989 67 781 b 447 -8 67 225 218 29 b 328 -103 393 -18 346 -67 z m 531 899 b 854 486 742 899 854 726 b 526 75 854 233 728 75 b 200 485 325 75 200 235 b 531 899 200 738 326 899 z "},"R":{"ha":939,"x_min":0,"x_max":0,"o":"m 125 0 l 250 0 l 250 429 l 407 429 b 547 397 482 429 519 419 b 622 285 583 368 600 332 b 746 0 689 138 746 0 l 883 0 l 743 301 b 644 443 710 375 681 415 b 632 460 638 449 632 451 b 643 471 632 465 636 469 b 819 707 749 507 819 592 b 739 897 819 788 792 851 b 482 975 682 947 594 975 l 125 975 z m 250 517 l 250 890 l 492 890 b 688 701 626 890 688 800 b 492 517 688 606 626 517 z "},"Ŕ":{"ha":939,"x_min":0,"x_max":0,"o":"m 586 1218 l 460 1218 l 393 1046 l 454 1046 z m 125 0 l 250 0 l 250 429 l 407 429 b 547 397 482 429 519 419 b 622 285 583 368 600 332 b 746 0 689 138 746 0 l 883 0 l 743 301 b 644 443 710 375 681 415 b 632 460 638 449 632 451 b 643 471 632 465 636 469 b 819 707 749 507 819 592 b 739 897 819 788 792 851 b 482 975 682 947 594 975 l 125 975 z m 250 517 l 250 890 l 492 890 b 688 701 626 890 688 800 b 492 517 688 606 626 517 z "},"Ř":{"ha":939,"x_min":0,"x_max":0,"o":"m 481 1044 l 663 1229 l 606 1229 l 460 1136 l 324 1229 l 257 1229 l 438 1044 z m 743 301 b 644 443 710 375 681 415 b 632 460 638 449 632 451 b 643 471 632 465 636 469 b 819 707 749 507 819 592 b 739 897 819 788 792 851 b 482 975 682 947 594 975 l 125 975 l 125 0 l 250 0 l 250 429 l 407 429 b 547 397 482 429 519 419 b 622 285 583 368 600 332 b 746 0 689 138 746 0 l 883 0 z m 492 517 l 250 517 l 250 890 l 492 890 b 688 701 626 890 688 800 b 492 517 688 606 626 517 z "},"Ŗ":{"ha":939,"x_min":0,"x_max":0,"o":"m 125 0 l 250 0 l 250 429 l 407 429 b 547 397 482 429 519 419 b 622 285 583 368 600 332 b 746 0 689 138 746 0 l 883 0 l 743 301 b 644 443 710 375 681 415 b 632 460 638 449 632 451 b 643 471 632 465 636 469 b 819 707 749 507 819 592 b 739 897 819 788 792 851 b 482 975 682 947 594 975 l 125 975 z m 250 517 l 250 890 l 492 890 b 688 701 626 890 688 800 b 492 517 688 606 626 517 z m 464 -58 b 438 -181 390 -58 374 -153 b 468 -222 451 -190 474 -193 b 388 -272 464 -237 438 -261 l 397 -311 b 542 -158 517 -287 542 -212 b 464 -58 542 -101 514 -58 z "},"S":{"ha":838,"x_min":0,"x_max":0,"o":"m 444 -12 b 772 263 625 -12 772 82 b 707 433 772 333 746 392 b 460 564 646 499 551 533 b 204 760 328 610 204 647 b 410 904 204 846 286 904 b 679 801 551 904 632 844 l 732 854 b 403 989 682 908 561 989 b 79 731 210 989 79 882 b 121 599 79 686 89 642 b 379 456 176 526 279 490 b 644 232 514 410 644 364 b 436 72 644 131 560 72 b 101 201 306 72 176 135 l 56 138 b 444 -12 125 63 290 -12 z "},"Ś":{"ha":838,"x_min":0,"x_max":0,"o":"m 538 1218 l 411 1218 l 344 1046 l 406 1046 z m 444 -12 b 772 263 625 -12 772 82 b 707 433 772 333 746 392 b 460 564 646 499 551 533 b 204 760 328 610 204 647 b 410 904 204 846 286 904 b 679 801 551 904 632 844 l 732 854 b 403 989 682 908 561 989 b 79 731 210 989 79 882 b 121 599 79 686 89 642 b 379 456 176 526 279 490 b 644 232 514 410 644 364 b 436 72 644 131 560 72 b 101 201 306 72 176 135 l 56 138 b 444 -12 125 63 290 -12 z "},"Š":{"ha":838,"x_min":0,"x_max":0,"o":"m 432 1044 l 614 1229 l 557 1229 l 411 1136 l 275 1229 l 208 1229 l 389 1044 z m 707 433 b 460 564 646 499 551 533 b 204 760 328 610 204 647 b 410 904 204 846 286 904 b 679 801 551 904 632 844 l 732 854 b 403 989 682 908 561 989 b 79 731 210 989 79 882 b 121 599 79 686 89 642 b 379 456 176 526 279 490 b 644 232 514 410 644 364 b 436 72 644 131 560 72 b 101 201 306 72 176 135 l 56 138 b 444 -12 125 63 290 -12 b 772 263 625 -12 772 82 b 707 433 772 333 746 392 z "},"Ş":{"ha":838,"x_min":0,"x_max":0,"o":"m 457 -12 b 772 263 632 -8 772 85 b 707 433 772 333 746 392 b 460 564 646 499 551 533 b 204 760 328 610 204 647 b 410 904 204 846 286 904 b 679 801 551 904 632 844 l 732 854 b 403 989 682 908 561 989 b 79 731 210 989 79 882 b 121 599 79 686 89 642 b 379 456 176 526 279 490 b 644 232 514 410 644 364 b 436 72 644 131 560 72 b 101 201 306 72 176 135 l 56 138 b 394 -10 117 69 256 4 l 332 -97 l 374 -135 b 435 -111 390 -119 413 -111 b 496 -167 472 -111 496 -133 b 424 -222 496 -200 468 -222 b 310 -178 388 -222 343 -206 l 281 -214 b 440 -282 324 -261 385 -282 b 583 -171 517 -282 583 -243 b 465 -60 583 -106 535 -60 b 447 -61 460 -60 453 -60 b 436 -60 442 -61 438 -61 b 436 -46 433 -57 433 -51 z "},"Ș":{"ha":840,"x_min":0,"x_max":0,"o":"m 444 -12 b 772 263 625 -12 772 82 b 707 433 772 333 746 392 b 460 564 646 499 551 533 b 204 760 328 610 204 647 b 410 904 204 846 286 904 b 679 801 551 904 632 844 l 732 854 b 403 989 682 908 561 989 b 79 731 210 989 79 882 b 121 599 79 686 89 642 b 379 456 176 526 279 490 b 644 232 514 410 644 364 b 436 72 644 131 560 72 b 101 201 306 72 176 135 l 56 138 b 444 -12 125 63 290 -12 z m 450 -58 b 424 -181 376 -58 360 -153 b 454 -222 438 -190 460 -193 b 374 -272 450 -237 424 -261 l 383 -311 b 528 -158 503 -287 528 -212 b 450 -58 528 -101 500 -58 z "},"T":{"ha":878,"x_min":0,"x_max":0,"o":"m 376 0 l 501 0 l 501 892 l 853 892 l 853 975 l 25 975 l 25 892 l 376 892 z "},"Ŧ":{"ha":878,"x_min":0,"x_max":0,"o":"m 853 892 l 853 975 l 25 975 l 25 892 l 376 892 l 376 654 l 182 654 l 182 561 l 376 561 l 376 0 l 501 0 l 501 561 l 699 561 l 699 654 l 501 654 l 501 892 z "},"Ť":{"ha":878,"x_min":0,"x_max":0,"o":"m 460 1044 l 642 1229 l 585 1229 l 439 1136 l 303 1229 l 236 1229 l 417 1044 z m 25 975 l 25 892 l 376 892 l 376 0 l 501 0 l 501 892 l 853 892 l 853 975 z "},"Ţ":{"ha":878,"x_min":0,"x_max":0,"o":"m 472 0 l 501 0 l 501 892 l 853 892 l 853 975 l 25 975 l 25 892 l 376 892 l 376 0 l 408 0 l 339 -97 l 381 -135 b 442 -111 397 -119 419 -111 b 503 -167 479 -111 503 -133 b 431 -222 503 -200 475 -222 b 317 -178 394 -222 350 -206 l 288 -214 b 447 -282 331 -261 392 -282 b 590 -171 524 -282 590 -243 b 472 -60 590 -106 542 -60 b 454 -61 467 -60 460 -60 b 443 -60 449 -61 444 -61 b 443 -46 440 -57 440 -51 z "},"Ț":{"ha":878,"x_min":0,"x_max":0,"o":"m 376 0 l 501 0 l 501 892 l 853 892 l 853 975 l 25 975 l 25 892 l 376 892 z m 439 -58 b 413 -181 365 -58 349 -153 b 443 -222 426 -190 449 -193 b 363 -272 439 -237 413 -261 l 372 -311 b 517 -158 492 -287 517 -212 b 439 -58 517 -101 489 -58 z "},"U":{"ha":1000,"x_min":0,"x_max":0,"o":"m 510 -14 b 894 369 754 -14 894 121 l 894 975 l 794 975 l 794 354 b 513 78 794 182 707 78 b 240 347 329 78 240 165 l 240 975 l 108 975 l 108 367 b 510 -14 108 121 247 -14 z "},"Ú":{"ha":1000,"x_min":0,"x_max":0,"o":"m 635 1218 l 508 1218 l 442 1046 l 503 1046 z m 510 -14 b 894 369 754 -14 894 121 l 894 975 l 794 975 l 794 354 b 513 78 794 182 707 78 b 240 347 329 78 240 165 l 240 975 l 108 975 l 108 367 b 510 -14 108 121 247 -14 z "},"Û":{"ha":1000,"x_min":0,"x_max":0,"o":"m 508 1142 l 647 1044 l 708 1044 l 529 1229 l 486 1229 l 308 1044 l 361 1044 z m 794 975 l 794 354 b 513 78 794 182 707 78 b 240 347 329 78 240 165 l 240 975 l 108 975 l 108 367 b 510 -14 108 121 247 -14 b 894 369 754 -14 894 121 l 894 975 z "},"Ü":{"ha":1000,"x_min":0,"x_max":0,"o":"m 363 1065 b 436 1139 403 1065 436 1099 b 363 1213 436 1179 403 1213 b 289 1139 322 1213 289 1179 b 363 1065 289 1099 322 1065 z m 644 1065 b 718 1139 685 1065 718 1099 b 644 1213 718 1179 685 1213 b 571 1139 604 1213 571 1179 b 644 1065 571 1099 604 1065 z m 510 -14 b 894 369 754 -14 894 121 l 894 975 l 794 975 l 794 354 b 513 78 794 182 707 78 b 240 347 329 78 240 165 l 240 975 l 108 975 l 108 367 b 510 -14 108 121 247 -14 z "},"Ù":{"ha":1000,"x_min":0,"x_max":0,"o":"m 368 1218 l 500 1046 l 561 1046 l 494 1218 z m 510 -14 b 894 369 754 -14 894 121 l 894 975 l 794 975 l 794 354 b 513 78 794 182 707 78 b 240 347 329 78 240 165 l 240 975 l 108 975 l 108 367 b 510 -14 108 121 247 -14 z "},"Ű":{"ha":1000,"x_min":0,"x_max":0,"o":"m 531 1218 l 404 1218 l 338 1046 l 399 1046 z m 721 1218 l 594 1218 l 528 1046 l 589 1046 z m 510 -14 b 894 369 754 -14 894 121 l 894 975 l 794 975 l 794 354 b 513 78 794 182 707 78 b 240 347 329 78 240 165 l 240 975 l 108 975 l 108 367 b 510 -14 108 121 247 -14 z "},"Ū":{"ha":1000,"x_min":0,"x_max":0,"o":"m 281 1151 l 281 1075 l 738 1075 l 738 1151 z m 510 -14 b 894 369 754 -14 894 121 l 894 975 l 794 975 l 794 354 b 513 78 794 182 707 78 b 240 347 329 78 240 165 l 240 975 l 108 975 l 108 367 b 510 -14 108 121 247 -14 z "},"Ų":{"ha":1000,"x_min":0,"x_max":0,"o":"m 794 975 l 794 354 b 513 78 794 182 707 78 b 240 347 329 78 240 165 l 240 975 l 108 975 l 108 367 b 486 -14 108 128 239 -6 b 365 -162 431 -37 365 -83 b 507 -279 365 -240 433 -279 b 642 -231 554 -279 606 -262 l 635 -182 b 536 -219 604 -206 568 -219 b 467 -150 497 -219 467 -197 b 586 -10 467 -87 529 -37 b 894 369 782 17 894 147 l 894 975 z "},"Ů":{"ha":1000,"x_min":0,"x_max":0,"o":"m 638 1149 b 510 1044 638 1081 585 1044 b 382 1149 435 1044 382 1081 b 510 1257 382 1219 435 1257 b 638 1149 585 1257 638 1221 z m 576 1149 b 510 1213 578 1186 551 1213 b 443 1149 469 1213 443 1188 b 510 1089 443 1113 469 1089 b 576 1149 550 1089 578 1111 z m 510 -14 b 894 369 754 -14 894 121 l 894 975 l 794 975 l 794 354 b 513 78 794 182 707 78 b 240 347 329 78 240 165 l 240 975 l 108 975 l 108 367 b 510 -14 108 121 247 -14 z "},"V":{"ha":944,"x_min":0,"x_max":0,"o":"m 417 0 l 532 0 l 917 975 l 810 975 l 500 171 b 483 125 496 158 490 142 l 468 169 l 164 975 l 31 975 z "},"W":{"ha":1304,"x_min":0,"x_max":0,"o":"m 335 0 l 457 0 l 644 608 b 656 643 649 619 651 631 l 853 0 l 975 0 l 1279 975 l 1171 975 l 936 185 l 922 133 l 921 133 l 910 185 l 682 975 l 551 975 l 583 871 b 575 701 606 799 597 775 l 422 190 b 407 132 418 176 413 154 l 406 132 b 392 190 401 154 396 178 l 164 975 l 31 975 z "},"Ẃ":{"ha":1304,"x_min":0,"x_max":0,"o":"m 760 1218 l 633 1218 l 567 1046 l 628 1046 z m 335 0 l 457 0 l 644 608 b 656 643 649 619 651 631 l 853 0 l 975 0 l 1279 975 l 1171 975 l 936 185 l 922 133 l 921 133 l 910 185 l 682 975 l 551 975 l 583 871 b 575 701 606 799 597 775 l 422 190 b 407 132 418 176 413 154 l 406 132 b 392 190 401 154 396 178 l 164 975 l 31 975 z "},"Ŵ":{"ha":1304,"x_min":0,"x_max":0,"o":"m 633 1142 l 772 1044 l 833 1044 l 654 1229 l 611 1229 l 433 1044 l 486 1044 z m 1171 975 l 936 185 l 922 133 l 921 133 l 910 185 l 682 975 l 551 975 l 583 871 b 575 701 606 799 597 775 l 422 190 b 407 132 418 176 413 154 l 406 132 b 392 190 401 154 396 178 l 164 975 l 31 975 l 335 0 l 457 0 l 644 608 b 656 643 649 619 651 631 l 853 0 l 975 0 l 1279 975 z "},"Ẅ":{"ha":1304,"x_min":0,"x_max":0,"o":"m 488 1065 b 561 1139 528 1065 561 1099 b 488 1213 561 1179 528 1213 b 414 1139 447 1213 414 1179 b 488 1065 414 1099 447 1065 z m 769 1065 b 843 1139 810 1065 843 1099 b 769 1213 843 1179 810 1213 b 696 1139 729 1213 696 1179 b 769 1065 696 1099 729 1065 z m 335 0 l 457 0 l 644 608 b 656 643 649 619 651 631 l 853 0 l 975 0 l 1279 975 l 1171 975 l 936 185 l 922 133 l 921 133 l 910 185 l 682 975 l 551 975 l 583 871 b 575 701 606 799 597 775 l 422 190 b 407 132 418 176 413 154 l 406 132 b 392 190 401 154 396 178 l 164 975 l 31 975 z "},"Ẁ":{"ha":1304,"x_min":0,"x_max":0,"o":"m 493 1218 l 625 1046 l 686 1046 l 619 1218 z m 335 0 l 457 0 l 644 608 b 656 643 649 619 651 631 l 853 0 l 975 0 l 1279 975 l 1171 975 l 936 185 l 922 133 l 921 133 l 910 185 l 682 975 l 551 975 l 583 871 b 575 701 606 799 597 775 l 422 190 b 407 132 418 176 413 154 l 406 132 b 392 190 401 154 396 178 l 164 975 l 31 975 z "},"X":{"ha":917,"x_min":0,"x_max":0,"o":"m 561 450 b 567 557 535 490 535 508 l 850 975 l 732 975 l 499 638 l 463 585 b 426 638 451 603 439 619 l 189 975 l 40 975 l 342 549 b 343 449 368 511 369 489 l 35 0 l 168 0 l 418 378 b 442 413 426 389 433 401 b 467 378 450 401 457 389 l 732 0 l 882 0 z "},"Y":{"ha":864,"x_min":0,"x_max":0,"o":"m 378 0 l 507 0 l 507 328 b 536 453 507 381 514 413 l 836 975 l 722 975 l 485 542 b 456 478 468 508 461 493 l 454 478 b 418 546 442 500 431 524 l 168 975 l 25 975 l 353 440 b 378 324 374 407 378 381 z "},"Ý":{"ha":864,"x_min":0,"x_max":0,"o":"m 563 1218 l 436 1218 l 369 1046 l 431 1046 z m 378 0 l 507 0 l 507 328 b 536 453 507 381 514 413 l 836 975 l 722 975 l 485 542 b 456 478 468 508 461 493 l 454 478 b 418 546 442 500 431 524 l 168 975 l 25 975 l 353 440 b 378 324 374 407 378 381 z "},"Ŷ":{"ha":864,"x_min":0,"x_max":0,"o":"m 436 1142 l 575 1044 l 636 1044 l 457 1229 l 414 1229 l 236 1044 l 289 1044 z m 722 975 l 485 542 b 456 478 468 508 461 493 l 454 478 b 418 546 442 500 431 524 l 168 975 l 25 975 l 353 440 b 378 324 374 407 378 381 l 378 0 l 507 0 l 507 328 b 536 453 507 381 514 413 l 836 975 z "},"Ÿ":{"ha":864,"x_min":0,"x_max":0,"o":"m 290 1065 b 364 1139 331 1065 364 1099 b 290 1213 364 1179 331 1213 b 217 1139 250 1213 217 1179 b 290 1065 217 1099 250 1065 z m 572 1065 b 646 1139 613 1065 646 1099 b 572 1213 646 1179 613 1213 b 499 1139 532 1213 499 1179 b 572 1065 499 1099 532 1065 z m 378 0 l 507 0 l 507 328 b 536 453 507 381 514 413 l 836 975 l 722 975 l 485 542 b 456 478 468 508 461 493 l 454 478 b 418 546 442 500 431 524 l 168 975 l 25 975 l 353 440 b 378 324 374 407 378 381 z "},"Ỳ":{"ha":864,"x_min":0,"x_max":0,"o":"m 296 1218 l 428 1046 l 489 1046 l 422 1218 z m 378 0 l 507 0 l 507 328 b 536 453 507 381 514 413 l 836 975 l 722 975 l 485 542 b 456 478 468 508 461 493 l 454 478 b 418 546 442 500 431 524 l 168 975 l 25 975 l 353 440 b 378 324 374 407 378 381 z "},"Z":{"ha":815,"x_min":0,"x_max":0,"o":"m 190 89 b 222 133 200 103 211 117 l 758 906 l 758 975 l 60 975 l 60 889 l 619 889 l 588 844 l 49 78 l 49 0 l 765 0 l 765 89 z "},"Ź":{"ha":815,"x_min":0,"x_max":0,"o":"m 529 1218 l 403 1218 l 336 1046 l 397 1046 z m 190 89 b 222 133 200 103 211 117 l 758 906 l 758 975 l 60 975 l 60 889 l 619 889 l 588 844 l 49 78 l 49 0 l 765 0 l 765 89 z "},"Ž":{"ha":815,"x_min":0,"x_max":0,"o":"m 424 1044 l 606 1229 l 549 1229 l 403 1136 l 267 1229 l 200 1229 l 381 1044 z m 190 89 b 222 133 200 103 211 117 l 758 906 l 758 975 l 60 975 l 60 889 l 619 889 l 588 844 l 49 78 l 49 0 l 765 0 l 765 89 z "},"Ż":{"ha":815,"x_min":0,"x_max":0,"o":"m 403 1064 b 482 1143 447 1064 482 1100 b 403 1222 482 1188 447 1222 b 324 1143 360 1222 324 1188 b 403 1064 324 1100 360 1064 z m 190 89 b 222 133 200 103 211 117 l 758 906 l 758 975 l 60 975 l 60 889 l 619 889 l 588 844 l 49 78 l 49 0 l 765 0 l 765 89 z "},"a":{"ha":749,"x_min":0,"x_max":0,"o":"m 693 68 b 657 61 683 64 669 61 b 621 74 643 61 631 65 b 604 126 611 83 604 99 l 604 456 b 547 646 604 542 586 606 b 374 707 508 688 450 707 b 200 664 314 707 251 690 b 99 594 175 651 132 625 l 139 540 b 232 601 165 565 203 588 b 354 628 269 619 313 628 b 458 593 399 628 433 617 b 492 494 481 572 492 539 l 492 483 b 290 357 492 403 392 385 b 74 160 171 325 74 281 b 278 -10 74 53 156 -10 b 468 50 381 -10 438 29 b 492 60 478 57 483 60 b 510 49 500 60 504 56 b 621 -10 538 10 572 -10 b 704 14 651 -10 685 1 z m 492 150 b 475 122 492 135 483 129 b 304 68 444 100 392 68 b 224 93 271 68 243 75 b 194 167 206 110 194 135 b 226 243 194 196 204 224 b 332 296 253 269 290 282 b 492 367 394 314 463 328 z "},"á":{"ha":749,"x_min":0,"x_max":0,"o":"m 500 940 l 374 940 l 307 768 l 368 768 z m 693 68 b 657 61 683 64 669 61 b 621 74 643 61 631 65 b 604 126 611 83 604 99 l 604 456 b 547 646 604 542 586 606 b 374 707 508 688 450 707 b 200 664 314 707 251 690 b 99 594 175 651 132 625 l 139 540 b 232 601 165 565 203 588 b 354 628 269 619 313 628 b 458 593 399 628 433 617 b 492 494 481 572 492 539 l 492 483 b 290 357 492 403 392 385 b 74 160 171 325 74 281 b 278 -10 74 53 156 -10 b 468 50 381 -10 438 29 b 492 60 478 57 483 60 b 510 49 500 60 504 56 b 621 -10 538 10 572 -10 b 704 14 651 -10 685 1 z m 492 150 b 475 122 492 135 483 129 b 304 68 444 100 392 68 b 224 93 271 68 243 75 b 194 167 206 110 194 135 b 226 243 194 196 204 224 b 332 296 253 269 290 282 b 492 367 394 314 463 328 z "},"ă":{"ha":749,"x_min":0,"x_max":0,"o":"m 558 946 b 374 763 561 844 489 763 b 189 946 256 763 186 844 l 251 946 b 374 844 251 889 299 844 b 494 946 449 844 494 889 z m 693 68 b 657 61 683 64 669 61 b 621 74 643 61 631 65 b 604 126 611 83 604 99 l 604 456 b 547 646 604 542 586 606 b 374 707 508 688 450 707 b 200 664 314 707 251 690 b 99 594 175 651 132 625 l 139 540 b 232 601 165 565 203 588 b 354 628 269 619 313 628 b 458 593 399 628 433 617 b 492 494 481 572 492 539 l 492 483 b 290 357 492 403 392 385 b 74 160 171 325 74 281 b 278 -10 74 53 156 -10 b 468 50 381 -10 438 29 b 492 60 478 57 483 60 b 510 49 500 60 504 56 b 621 -10 538 10 572 -10 b 704 14 651 -10 685 1 z m 492 150 b 475 122 492 135 483 129 b 304 68 444 100 392 68 b 224 93 271 68 243 75 b 194 167 206 110 194 135 b 226 243 194 196 204 224 b 332 296 253 269 290 282 b 492 367 394 314 463 328 z "},"â":{"ha":749,"x_min":0,"x_max":0,"o":"m 374 864 l 513 767 l 574 767 l 394 951 l 351 951 l 174 767 l 226 767 z m 693 68 b 657 61 683 64 669 61 b 621 74 643 61 631 65 b 604 126 611 83 604 99 l 604 456 b 547 646 604 542 586 606 b 374 707 508 688 450 707 b 200 664 314 707 251 690 b 99 594 175 651 132 625 l 139 540 b 232 601 165 565 203 588 b 354 628 269 619 313 628 b 458 593 399 628 433 617 b 492 494 481 572 492 539 l 492 483 b 290 357 492 403 392 385 b 74 160 171 325 74 281 b 278 -10 74 53 156 -10 b 468 50 381 -10 438 29 b 492 60 478 57 483 60 b 510 49 500 60 504 56 b 621 -10 538 10 572 -10 b 704 14 651 -10 685 1 z m 492 150 b 475 122 492 135 483 129 b 304 68 444 100 392 68 b 224 93 271 68 243 75 b 194 167 206 110 194 135 b 226 243 194 196 204 224 b 332 296 253 269 290 282 b 492 367 394 314 463 328 z "},"ä":{"ha":749,"x_min":0,"x_max":0,"o":"m 228 788 b 301 861 268 788 301 821 b 228 935 301 901 268 935 b 154 861 188 935 154 901 b 228 788 154 821 188 788 z m 510 788 b 583 861 550 788 583 821 b 510 935 583 901 550 935 b 436 861 469 935 436 901 b 510 788 436 821 469 788 z m 693 68 b 657 61 683 64 669 61 b 621 74 643 61 631 65 b 604 126 611 83 604 99 l 604 456 b 547 646 604 542 586 606 b 374 707 508 688 450 707 b 200 664 314 707 251 690 b 99 594 175 651 132 625 l 139 540 b 232 601 165 565 203 588 b 354 628 269 619 313 628 b 458 593 399 628 433 617 b 492 494 481 572 492 539 l 492 483 b 290 357 492 403 392 385 b 74 160 171 325 74 281 b 278 -10 74 53 156 -10 b 468 50 381 -10 438 29 b 492 60 478 57 483 60 b 510 49 500 60 504 56 b 621 -10 538 10 572 -10 b 704 14 651 -10 685 1 z m 492 150 b 475 122 492 135 483 129 b 304 68 444 100 392 68 b 224 93 271 68 243 75 b 194 167 206 110 194 135 b 226 243 194 196 204 224 b 332 296 253 269 290 282 b 492 367 394 314 463 328 z "},"à":{"ha":749,"x_min":0,"x_max":0,"o":"m 233 940 l 365 768 l 426 768 l 360 940 z m 693 68 b 657 61 683 64 669 61 b 621 74 643 61 631 65 b 604 126 611 83 604 99 l 604 456 b 547 646 604 542 586 606 b 374 707 508 688 450 707 b 200 664 314 707 251 690 b 99 594 175 651 132 625 l 139 540 b 232 601 165 565 203 588 b 354 628 269 619 313 628 b 458 593 399 628 433 617 b 492 494 481 572 492 539 l 492 483 b 290 357 492 403 392 385 b 74 160 171 325 74 281 b 278 -10 74 53 156 -10 b 468 50 381 -10 438 29 b 492 60 478 57 483 60 b 510 49 500 60 504 56 b 621 -10 538 10 572 -10 b 704 14 651 -10 685 1 z m 492 150 b 475 122 492 135 483 129 b 304 68 444 100 392 68 b 224 93 271 68 243 75 b 194 167 206 110 194 135 b 226 243 194 196 204 224 b 332 296 253 269 290 282 b 492 367 394 314 463 328 z "},"ā":{"ha":749,"x_min":0,"x_max":0,"o":"m 146 874 l 146 797 l 603 797 l 603 874 z m 693 68 b 657 61 683 64 669 61 b 621 74 643 61 631 65 b 604 126 611 83 604 99 l 604 456 b 547 646 604 542 586 606 b 374 707 508 688 450 707 b 200 664 314 707 251 690 b 99 594 175 651 132 625 l 139 540 b 232 601 165 565 203 588 b 354 628 269 619 313 628 b 458 593 399 628 433 617 b 492 494 481 572 492 539 l 492 483 b 290 357 492 403 392 385 b 74 160 171 325 74 281 b 278 -10 74 53 156 -10 b 468 50 381 -10 438 29 b 492 60 478 57 483 60 b 510 49 500 60 504 56 b 621 -10 538 10 572 -10 b 704 14 651 -10 685 1 z m 492 150 b 475 122 492 135 483 129 b 304 68 444 100 392 68 b 224 93 271 68 243 75 b 194 167 206 110 194 135 b 226 243 194 196 204 224 b 332 296 253 269 290 282 b 492 367 394 314 463 328 z "},"ą":{"ha":749,"x_min":0,"x_max":0,"o":"m 593 -217 b 524 -147 554 -217 524 -194 b 639 -8 524 -85 585 -36 b 704 14 664 -6 689 3 l 693 68 b 657 61 683 64 669 61 b 621 74 643 61 631 65 b 604 126 611 83 604 99 l 604 456 b 547 646 604 542 586 606 b 374 707 508 688 450 707 b 200 664 314 707 251 690 b 99 594 175 651 132 625 l 139 540 b 232 601 165 565 203 588 b 354 628 269 619 313 628 b 458 593 399 628 433 617 b 492 494 481 572 492 539 l 492 483 b 290 357 492 403 392 385 b 74 160 171 325 74 281 b 278 -10 74 53 156 -10 b 468 50 381 -10 438 29 b 492 60 478 57 483 60 b 510 49 500 60 504 56 b 569 0 526 25 546 8 b 422 -160 510 -22 422 -67 b 564 -276 422 -237 490 -276 b 699 -228 611 -276 663 -260 l 692 -179 b 593 -217 661 -203 625 -217 z m 492 150 b 475 122 492 135 483 129 b 304 68 444 100 392 68 b 224 93 271 68 243 75 b 194 167 206 110 194 135 b 226 243 194 196 204 224 b 332 296 253 269 290 282 b 492 367 394 314 463 328 z "},"å":{"ha":749,"x_min":0,"x_max":0,"o":"m 503 871 b 375 767 503 803 450 767 b 247 871 300 767 247 803 b 375 979 247 942 300 979 b 503 871 450 979 503 943 z m 442 871 b 375 935 443 908 417 935 b 308 871 335 935 308 910 b 375 811 308 835 335 811 b 442 871 415 811 443 833 z m 693 68 b 657 61 683 64 669 61 b 621 74 643 61 631 65 b 604 126 611 83 604 99 l 604 456 b 547 646 604 542 586 606 b 374 707 508 688 450 707 b 200 664 314 707 251 690 b 99 594 175 651 132 625 l 139 540 b 232 601 165 565 203 588 b 354 628 269 619 313 628 b 458 593 399 628 433 617 b 492 494 481 572 492 539 l 492 483 b 290 357 492 403 392 385 b 74 160 171 325 74 281 b 278 -10 74 53 156 -10 b 468 50 381 -10 438 29 b 492 60 478 57 483 60 b 510 49 500 60 504 56 b 621 -10 538 10 572 -10 b 704 14 651 -10 685 1 z m 492 150 b 475 122 492 135 483 129 b 304 68 444 100 392 68 b 224 93 271 68 243 75 b 194 167 206 110 194 135 b 226 243 194 196 204 224 b 332 296 253 269 290 282 b 492 367 394 314 463 328 z "},"ã":{"ha":749,"x_min":0,"x_max":0,"o":"m 238 767 l 183 767 b 294 917 188 853 226 917 b 388 878 326 917 356 896 b 458 844 414 861 439 844 b 510 911 481 844 501 860 l 564 911 b 451 761 561 824 524 761 b 354 800 419 761 385 781 b 285 833 326 818 307 833 b 238 767 260 833 243 813 z m 693 68 b 657 61 683 64 669 61 b 621 74 643 61 631 65 b 604 126 611 83 604 99 l 604 456 b 547 646 604 542 586 606 b 374 707 508 688 450 707 b 200 664 314 707 251 690 b 99 594 175 651 132 625 l 139 540 b 232 601 165 565 203 588 b 354 628 269 619 313 628 b 458 593 399 628 433 617 b 492 494 481 572 492 539 l 492 483 b 290 357 492 403 392 385 b 74 160 171 325 74 281 b 278 -10 74 53 156 -10 b 468 50 381 -10 438 29 b 492 60 478 57 483 60 b 510 49 500 60 504 56 b 621 -10 538 10 572 -10 b 704 14 651 -10 685 1 z m 492 150 b 475 122 492 135 483 129 b 304 68 444 100 392 68 b 224 93 271 68 243 75 b 194 167 206 110 194 135 b 226 243 194 196 204 224 b 332 296 253 269 290 282 b 492 367 394 314 463 328 z "},"æ":{"ha":1146,"x_min":0,"x_max":0,"o":"m 793 -11 b 1057 107 890 -11 990 31 l 1014 156 b 806 68 956 99 878 68 b 635 153 738 68 676 94 b 590 325 607 196 592 254 l 1064 325 b 1067 371 1065 346 1067 360 b 783 707 1067 569 967 707 b 561 607 692 707 615 671 b 381 707 529 674 460 706 b 93 593 279 708 167 663 l 133 540 b 351 628 190 592 276 628 b 488 485 443 628 488 581 b 307 364 488 408 400 389 b 139 294 247 347 183 329 b 74 161 96 263 74 217 b 264 -8 74 46 158 -7 b 521 86 354 -10 449 28 b 544 96 529 92 536 96 b 569 82 554 96 561 90 b 793 -11 624 25 701 -11 z m 594 404 b 783 628 599 554 685 628 b 947 406 883 628 947 550 z m 304 69 b 192 168 236 69 192 101 b 224 242 192 197 201 222 b 331 294 250 267 289 282 b 478 361 389 311 450 325 b 503 192 475 315 485 238 b 489 140 511 171 503 153 b 304 69 456 107 372 69 z "},"b":{"ha":801,"x_min":0,"x_max":0,"o":"m 431 707 b 228 622 356 707 278 676 l 228 1014 l 111 1014 l 111 0 l 163 0 l 189 54 b 210 71 194 65 203 69 b 226 65 217 71 222 68 b 422 -12 275 17 351 -12 b 738 349 590 -12 738 111 b 431 707 738 554 619 707 z m 408 67 b 263 124 358 67 299 89 b 228 194 242 144 228 168 l 228 468 b 282 578 228 517 250 550 b 421 628 319 608 371 628 b 617 347 539 628 617 531 b 408 67 617 165 533 67 z "},"c":{"ha":707,"x_min":0,"x_max":0,"o":"m 396 -14 b 650 100 563 -14 650 100 l 608 150 b 413 67 608 150 542 67 b 185 347 293 67 185 174 b 415 628 185 503 261 628 b 594 556 535 628 594 556 l 635 610 b 400 708 635 610 556 708 b 64 344 186 708 64 546 b 396 -14 64 143 185 -14 z "},"ć":{"ha":707,"x_min":0,"x_max":0,"o":"m 528 940 l 401 940 l 335 768 l 396 768 z m 396 -14 b 650 100 563 -14 650 100 l 608 150 b 413 67 608 150 542 67 b 185 347 293 67 185 174 b 415 628 185 503 261 628 b 594 556 535 628 594 556 l 635 610 b 400 708 635 610 556 708 b 64 344 186 708 64 546 b 396 -14 64 143 185 -14 z "},"č":{"ha":707,"x_min":0,"x_max":0,"o":"m 422 767 l 604 951 l 547 951 l 401 858 l 265 951 l 199 951 l 379 767 z m 608 150 b 413 67 608 150 542 67 b 185 347 293 67 185 174 b 415 628 185 503 261 628 b 594 556 535 628 594 556 l 635 610 b 400 708 635 610 556 708 b 64 344 186 708 64 546 b 396 -14 64 143 185 -14 b 650 100 563 -14 650 100 z "},"ç":{"ha":707,"x_min":0,"x_max":0,"o":"m 426 -12 b 650 100 574 0 650 100 l 608 150 b 413 67 608 150 542 67 b 185 347 293 67 185 174 b 415 628 185 503 261 628 b 594 556 535 628 594 556 l 635 610 b 400 708 635 610 556 708 b 64 344 186 708 64 546 b 361 -12 64 153 172 3 l 301 -97 l 343 -135 b 404 -111 360 -119 382 -111 b 465 -167 442 -111 465 -133 b 393 -222 465 -200 438 -222 b 279 -178 357 -222 313 -206 l 250 -214 b 410 -282 293 -261 354 -282 b 553 -171 486 -282 553 -243 b 435 -60 553 -106 504 -60 b 417 -61 429 -60 422 -60 b 406 -60 411 -61 407 -61 b 406 -46 403 -57 403 -51 z "},"ċ":{"ha":707,"x_min":0,"x_max":0,"o":"m 400 786 b 479 865 444 786 479 822 b 400 944 479 910 444 944 b 321 865 357 944 321 910 b 400 786 321 822 357 786 z m 396 -14 b 650 100 563 -14 650 100 l 608 150 b 413 67 608 150 542 67 b 185 347 293 67 185 174 b 415 628 185 503 261 628 b 594 556 535 628 594 556 l 635 610 b 400 708 635 610 556 708 b 64 344 186 708 64 546 b 396 -14 64 143 185 -14 z "},"d":{"ha":804,"x_min":0,"x_max":0,"o":"m 575 1014 l 575 628 b 501 683 554 651 529 669 b 378 708 467 700 426 708 b 64 338 190 708 64 558 b 378 -12 64 129 192 -12 b 553 46 450 -12 510 13 b 585 61 567 57 578 63 b 597 47 592 61 596 57 l 610 0 l 692 0 l 692 1014 z m 575 206 b 536 115 575 169 561 139 b 394 67 503 85 453 67 b 185 338 267 67 185 158 b 249 561 185 436 207 511 b 400 628 285 604 336 628 b 528 579 450 628 496 610 b 575 471 556 553 575 522 z "},"ð":{"ha":778,"x_min":0,"x_max":0,"o":"m 483 900 l 561 967 l 514 1021 l 425 944 b 283 1015 379 975 331 999 l 203 971 b 361 889 260 950 314 922 l 274 813 l 319 758 l 418 843 b 551 672 475 794 521 735 b 549 653 556 663 554 656 b 532 657 543 650 538 653 b 525 661 533 656 529 658 b 388 708 483 692 436 708 b 65 344 200 708 65 568 b 388 -14 65 121 201 -14 b 708 354 581 -14 708 125 l 708 365 b 483 900 708 617 611 790 z m 532 657 b 531 657 532 657 531 657 z m 390 67 b 186 344 268 67 186 178 b 390 628 186 514 268 628 b 600 344 517 628 600 514 b 390 67 600 178 517 67 z "},"ď":{"ha":954,"x_min":0,"x_max":0,"o":"m 575 628 b 501 683 554 651 529 669 b 378 708 467 700 426 708 b 64 338 190 708 64 558 b 378 -12 64 129 192 -12 b 553 46 450 -12 510 13 b 585 61 567 57 578 63 b 597 47 592 61 596 57 l 610 0 l 692 0 l 692 1014 l 575 1014 z m 828 975 l 761 801 l 822 801 l 954 975 z m 575 206 b 536 115 575 169 561 139 b 394 67 503 85 453 67 b 185 338 267 67 185 158 b 249 561 185 436 207 511 b 400 628 285 604 336 628 b 528 579 450 628 496 610 b 575 471 556 553 575 522 z "},"đ":{"ha":790,"x_min":0,"x_max":0,"o":"m 790 901 l 692 901 l 692 1014 l 575 1014 l 575 901 l 364 901 l 364 818 l 575 818 l 575 628 b 501 683 554 651 529 669 b 378 708 467 700 426 708 b 64 338 190 708 64 558 b 378 -12 64 129 192 -12 b 553 46 450 -12 510 13 b 585 61 567 57 578 63 b 597 47 592 61 596 57 l 610 0 l 692 0 l 692 818 l 790 818 z m 575 206 b 536 115 575 169 561 139 b 394 67 503 85 453 67 b 185 338 267 67 185 158 b 249 561 185 436 207 511 b 400 628 285 604 336 628 b 528 579 450 628 496 610 b 575 471 556 553 575 522 z "},"e":{"ha":753,"x_min":0,"x_max":0,"o":"m 672 371 b 385 707 672 569 571 707 b 64 346 193 707 64 569 b 156 81 64 236 97 143 b 392 -12 211 21 293 -12 b 668 104 494 -12 597 28 l 624 154 b 406 68 563 99 482 68 b 228 153 335 68 269 94 b 183 325 200 196 185 254 l 669 325 b 672 371 671 339 672 360 z m 383 628 b 553 407 489 628 553 544 l 188 407 b 383 628 200 558 282 628 z "},"é":{"ha":753,"x_min":0,"x_max":0,"o":"m 515 940 l 389 940 l 322 768 l 383 768 z m 672 371 b 385 707 672 569 571 707 b 64 346 193 707 64 569 b 156 81 64 236 97 143 b 392 -12 211 21 293 -12 b 668 104 494 -12 597 28 l 624 154 b 406 68 563 99 482 68 b 228 153 335 68 269 94 b 183 325 200 196 185 254 l 669 325 b 672 371 671 339 672 360 z m 383 628 b 553 407 489 628 553 544 l 188 407 b 383 628 200 558 282 628 z "},"ě":{"ha":753,"x_min":0,"x_max":0,"o":"m 410 767 l 592 951 l 535 951 l 389 858 l 253 951 l 186 951 l 367 767 z m 672 371 b 385 707 672 569 571 707 b 64 346 193 707 64 569 b 156 81 64 236 97 143 b 392 -12 211 21 293 -12 b 668 104 494 -12 597 28 l 624 154 b 406 68 563 99 482 68 b 228 153 335 68 269 94 b 183 325 200 196 185 254 l 669 325 b 672 371 671 339 672 360 z m 383 628 b 553 407 489 628 553 544 l 188 407 b 383 628 200 558 282 628 z "},"ê":{"ha":753,"x_min":0,"x_max":0,"o":"m 389 864 l 528 767 l 589 767 l 410 951 l 367 951 l 189 767 l 242 767 z m 672 371 b 385 707 672 569 571 707 b 64 346 193 707 64 569 b 156 81 64 236 97 143 b 392 -12 211 21 293 -12 b 668 104 494 -12 597 28 l 624 154 b 406 68 563 99 482 68 b 228 153 335 68 269 94 b 183 325 200 196 185 254 l 669 325 b 672 371 671 339 672 360 z m 383 628 b 553 407 489 628 553 544 l 188 407 b 383 628 200 558 282 628 z "},"ë":{"ha":753,"x_min":0,"x_max":0,"o":"m 243 788 b 317 861 283 788 317 821 b 243 935 317 901 283 935 b 169 861 203 935 169 901 b 243 788 169 821 203 788 z m 525 788 b 599 861 565 788 599 821 b 525 935 599 901 565 935 b 451 861 485 935 451 901 b 525 788 451 821 485 788 z m 672 371 b 385 707 672 569 571 707 b 64 346 193 707 64 569 b 156 81 64 236 97 143 b 392 -12 211 21 293 -12 b 668 104 494 -12 597 28 l 624 154 b 406 68 563 99 482 68 b 228 153 335 68 269 94 b 183 325 200 196 185 254 l 669 325 b 672 371 671 339 672 360 z m 383 628 b 553 407 489 628 553 544 l 188 407 b 383 628 200 558 282 628 z "},"ė":{"ha":753,"x_min":0,"x_max":0,"o":"m 388 786 b 467 865 432 786 467 822 b 388 944 467 910 432 944 b 308 865 344 944 308 910 b 388 786 308 822 344 786 z m 672 371 b 385 707 672 569 571 707 b 64 346 193 707 64 569 b 156 81 64 236 97 143 b 392 -12 211 21 293 -12 b 668 104 494 -12 597 28 l 624 154 b 406 68 563 99 482 68 b 228 153 335 68 269 94 b 183 325 200 196 185 254 l 669 325 b 672 371 671 339 672 360 z m 383 628 b 553 407 489 628 553 544 l 188 407 b 383 628 200 558 282 628 z "},"è":{"ha":753,"x_min":0,"x_max":0,"o":"m 442 768 l 375 940 l 249 940 l 381 768 z m 672 371 b 385 707 672 569 571 707 b 64 346 193 707 64 569 b 156 81 64 236 97 143 b 392 -12 211 21 293 -12 b 668 104 494 -12 597 28 l 624 154 b 406 68 563 99 482 68 b 228 153 335 68 269 94 b 183 325 200 196 185 254 l 669 325 b 672 371 671 339 672 360 z m 383 628 b 553 407 489 628 553 544 l 188 407 b 383 628 200 558 282 628 z "},"ē":{"ha":753,"x_min":0,"x_max":0,"o":"m 618 874 l 161 874 l 161 797 l 618 797 z m 672 371 b 385 707 672 569 571 707 b 64 346 193 707 64 569 b 156 81 64 236 97 143 b 392 -12 211 21 293 -12 b 668 104 494 -12 597 28 l 624 154 b 406 68 563 99 482 68 b 228 153 335 68 269 94 b 183 325 200 196 185 254 l 669 325 b 672 371 671 339 672 360 z m 383 628 b 553 407 489 628 553 544 l 188 407 b 383 628 200 558 282 628 z "},"ę":{"ha":753,"x_min":0,"x_max":0,"o":"m 672 371 b 385 707 672 569 571 707 b 64 346 193 707 64 569 b 156 81 64 236 97 143 b 369 -12 207 25 281 -7 b 251 -160 314 -36 251 -81 b 393 -276 251 -237 319 -276 b 528 -228 440 -276 492 -260 l 521 -179 b 422 -217 490 -203 454 -217 b 353 -147 383 -217 353 -194 b 479 -3 353 -81 422 -29 b 668 104 551 14 618 50 l 624 154 b 406 68 563 99 482 68 b 228 153 335 68 269 94 b 183 325 200 196 185 254 l 669 325 b 672 371 671 339 672 360 z m 383 628 b 553 407 489 628 553 544 l 188 407 b 383 628 200 558 282 628 z "},"f":{"ha":510,"x_min":0,"x_max":0,"o":"m 146 0 l 263 0 l 263 622 l 469 622 l 469 694 l 263 694 l 263 810 b 374 942 263 908 315 942 b 460 918 404 942 432 932 l 486 975 b 350 1017 458 996 413 1017 b 146 803 240 1017 146 947 l 146 757 b 94 693 146 710 129 697 l 40 689 l 40 622 l 146 622 z "},"g":{"ha":749,"x_min":0,"x_max":0,"o":"m 715 -51 b 644 54 707 -1 683 32 b 460 93 601 79 540 90 l 356 96 b 203 164 247 99 203 115 b 361 240 203 221 281 236 b 585 322 465 247 539 275 b 639 465 621 360 639 408 b 581 611 639 526 615 575 b 604 621 590 614 599 618 l 708 690 l 681 743 l 543 699 b 506 690 529 694 521 690 b 472 694 494 690 485 693 b 367 707 443 701 407 707 b 90 478 196 707 90 611 b 235 279 90 375 151 301 l 235 276 b 92 142 125 253 92 199 b 165 28 92 92 119 56 b 40 -115 99 11 40 -43 b 372 -283 40 -193 107 -283 b 715 -51 657 -283 732 -156 z m 210 472 b 367 624 210 572 276 624 b 521 471 467 624 521 563 b 367 324 521 375 458 324 b 210 472 271 324 210 378 z m 369 -207 b 153 -96 208 -207 153 -167 b 222 7 153 -29 222 7 b 372 -6 222 7 288 -6 l 444 -8 b 576 -29 506 -10 544 -11 b 614 -93 600 -42 614 -61 b 369 -207 614 -151 556 -207 z "},"ğ":{"ha":749,"x_min":0,"x_max":0,"o":"m 368 763 b 553 946 483 763 556 844 l 489 946 b 368 844 489 889 443 844 b 246 946 293 844 246 889 l 183 946 b 368 763 181 844 250 763 z m 715 -51 b 644 54 707 -1 683 32 b 460 93 601 79 540 90 l 356 96 b 203 164 247 99 203 115 b 361 240 203 221 281 236 b 585 322 465 247 539 275 b 639 465 621 360 639 408 b 581 611 639 526 615 575 b 604 621 590 614 599 618 l 708 690 l 681 743 l 543 699 b 506 690 529 694 521 690 b 472 694 494 690 485 693 b 367 707 443 701 407 707 b 90 478 196 707 90 611 b 235 279 90 375 151 301 l 235 276 b 92 142 125 253 92 199 b 165 28 92 92 119 56 b 40 -115 99 11 40 -43 b 372 -283 40 -193 107 -283 b 715 -51 657 -283 732 -156 z m 210 472 b 367 624 210 572 276 624 b 521 471 467 624 521 563 b 367 324 521 375 458 324 b 210 472 271 324 210 378 z m 369 -207 b 153 -96 208 -207 153 -167 b 222 7 153 -29 222 7 b 372 -6 222 7 288 -6 l 444 -8 b 576 -29 506 -10 544 -11 b 614 -93 600 -42 614 -61 b 369 -207 614 -151 556 -207 z "},"ģ":{"ha":749,"x_min":0,"x_max":0,"o":"m 369 774 b 397 897 444 774 461 869 b 365 938 383 906 360 908 b 447 988 371 954 396 976 l 438 1026 b 290 863 318 997 290 918 b 369 774 289 813 318 774 z m 715 -51 b 644 54 707 -1 683 32 b 460 93 601 79 540 90 l 356 96 b 203 164 247 99 203 115 b 361 240 203 221 281 236 b 585 322 465 247 539 275 b 639 465 621 360 639 408 b 581 611 639 526 615 575 b 604 621 590 614 599 618 l 708 690 l 681 743 l 543 699 b 506 690 529 694 521 690 b 472 694 494 690 485 693 b 367 707 443 701 407 707 b 90 478 196 707 90 611 b 235 279 90 375 151 301 l 235 276 b 92 142 125 253 92 199 b 165 28 92 92 119 56 b 40 -115 99 11 40 -43 b 372 -283 40 -193 107 -283 b 715 -51 657 -283 732 -156 z m 210 472 b 367 624 210 572 276 624 b 521 471 467 624 521 563 b 367 324 521 375 458 324 b 210 472 271 324 210 378 z m 369 -207 b 153 -96 208 -207 153 -167 b 222 7 153 -29 222 7 b 372 -6 222 7 288 -6 l 444 -8 b 576 -29 506 -10 544 -11 b 614 -93 600 -42 614 -61 b 369 -207 614 -151 556 -207 z "},"ġ":{"ha":749,"x_min":0,"x_max":0,"o":"m 367 786 b 446 865 411 786 446 822 b 367 944 446 910 411 944 b 288 865 324 944 288 910 b 367 786 288 822 324 786 z m 715 -51 b 644 54 707 -1 683 32 b 460 93 601 79 540 90 l 356 96 b 203 164 247 99 203 115 b 361 240 203 221 281 236 b 585 322 465 247 539 275 b 639 465 621 360 639 408 b 581 611 639 526 615 575 b 604 621 590 614 599 618 l 708 690 l 681 743 l 543 699 b 506 690 529 694 521 690 b 472 694 494 690 485 693 b 367 707 443 701 407 707 b 90 478 196 707 90 611 b 235 279 90 375 151 301 l 235 276 b 92 142 125 253 92 199 b 165 28 92 92 119 56 b 40 -115 99 11 40 -43 b 372 -283 40 -193 107 -283 b 715 -51 657 -283 732 -156 z m 210 472 b 367 624 210 572 276 624 b 521 471 467 624 521 563 b 367 324 521 375 458 324 b 210 472 271 324 210 378 z m 369 -207 b 153 -96 208 -207 153 -167 b 222 7 153 -29 222 7 b 372 -6 222 7 288 -6 l 444 -8 b 576 -29 506 -10 544 -11 b 614 -93 600 -42 614 -61 b 369 -207 614 -151 556 -207 z "},"h":{"ha":785,"x_min":0,"x_max":0,"o":"m 619 640 b 456 707 582 683 526 707 b 296 663 397 707 340 689 b 228 607 269 647 247 629 l 228 1014 l 111 1014 l 111 0 l 228 0 l 228 440 b 274 554 228 494 246 528 b 425 617 301 583 351 617 b 526 578 467 618 503 604 b 561 461 551 550 561 515 l 561 0 l 679 0 l 679 461 b 619 640 679 536 658 599 z "},"ħ":{"ha":785,"x_min":0,"x_max":0,"o":"m 619 640 b 456 707 582 683 526 707 b 296 663 397 707 340 689 b 228 607 269 647 247 629 l 228 818 l 439 818 l 439 901 l 228 901 l 228 1014 l 111 1014 l 111 901 l 13 901 l 13 818 l 111 818 l 111 0 l 228 0 l 228 440 b 274 554 228 494 246 528 b 425 617 301 583 351 617 b 526 578 467 618 503 604 b 561 461 551 550 561 515 l 561 0 l 679 0 l 679 461 b 619 640 679 536 658 599 z "},"i":{"ha":372,"x_min":0,"x_max":0,"o":"m 186 819 b 265 894 231 819 265 847 b 186 969 265 940 231 969 b 107 894 143 969 107 940 b 186 819 107 847 143 819 z m 126 0 l 243 0 l 243 694 l 126 694 z "},"ı":{"ha":340,"x_min":0,"x_max":0,"o":"m 111 694 l 111 0 l 229 0 l 229 694 z "},"í":{"ha":336,"x_min":0,"x_max":0,"o":"m 308 940 l 182 940 l 115 768 l 176 768 z m 111 694 l 111 0 l 229 0 l 229 694 z "},"î":{"ha":294,"x_min":0,"x_max":0,"o":"m 168 938 l 125 938 l -53 753 l 0 753 l 147 850 l 286 753 l 347 753 z m 88 0 l 206 0 l 206 694 l 88 694 z "},"ï":{"ha":321,"x_min":0,"x_max":0,"o":"m 46 774 b 119 847 86 774 119 807 b 46 921 119 888 86 921 b -28 847 6 921 -28 888 b 46 774 -28 807 6 774 z m 275 774 b 349 847 315 774 349 807 b 275 921 349 888 315 921 b 201 847 235 921 201 888 b 275 774 201 807 235 774 z m 103 694 l 103 0 l 221 0 l 221 694 z "},"ì":{"ha":333,"x_min":0,"x_max":0,"o":"m 28 926 l 160 754 l 221 754 l 154 926 z m 104 694 l 104 0 l 222 0 l 222 694 z "},"ī":{"ha":346,"x_min":0,"x_max":0,"o":"m 0 860 l 0 783 l 346 783 l 346 860 z m 111 694 l 111 0 l 229 0 l 229 694 z "},"į":{"ha":346,"x_min":0,"x_max":0,"o":"m 139 819 b 218 894 183 819 218 847 b 139 969 218 940 183 969 b 60 894 96 969 60 940 b 139 819 60 847 96 819 z m 228 -182 b 129 -219 197 -206 161 -219 b 60 -150 90 -219 60 -197 b 199 0 60 -79 139 -25 l 196 0 l 196 694 l 79 694 l 79 0 l 114 0 b -42 -162 56 -19 -42 -65 b 100 -279 -42 -240 26 -279 b 235 -231 147 -279 199 -262 z "},"j":{"ha":372,"x_min":0,"x_max":0,"o":"m 188 819 b 267 894 232 819 267 847 b 188 969 267 940 232 969 b 108 894 144 969 108 940 b 188 819 108 847 144 819 z m 78 -272 b 244 -79 164 -272 244 -219 l 244 694 l 129 694 l 129 -74 b 32 -200 129 -169 90 -200 b -10 -193 8 -200 -10 -193 l -22 -251 b 78 -272 3 -264 36 -272 z "},"k":{"ha":758,"x_min":0,"x_max":0,"o":"m 468 403 b 453 449 456 421 451 436 b 468 478 454 460 460 469 l 697 694 l 582 694 b 328 463 582 694 476 601 b 218 351 269 407 236 371 b 225 419 222 371 225 397 l 225 1014 l 111 1014 l 111 0 l 225 0 l 225 142 b 292 310 225 226 238 258 l 379 394 b 407 300 378 365 386 333 l 590 0 l 718 0 z "},"ķ":{"ha":760,"x_min":0,"x_max":0,"o":"m 468 403 b 453 449 456 421 451 436 b 468 478 454 460 460 469 l 697 694 l 582 694 b 328 463 582 694 476 601 b 218 351 269 407 236 371 b 225 419 222 371 225 397 l 225 1014 l 111 1014 l 111 0 l 225 0 l 225 142 b 292 310 225 226 238 258 l 379 394 b 407 300 378 365 386 333 l 590 0 l 718 0 z m 365 -58 b 339 -181 292 -58 275 -153 b 369 -222 353 -190 375 -193 b 289 -272 365 -237 339 -261 l 299 -311 b 443 -158 418 -287 443 -212 b 365 -58 443 -101 415 -58 z "},"l":{"ha":424,"x_min":0,"x_max":0,"o":"m 281 -8 b 381 13 322 -8 357 0 l 368 71 b 328 64 368 71 351 64 b 229 190 269 64 229 94 l 229 1014 l 114 1014 l 114 185 b 281 -8 114 44 194 -8 z "},"ĺ":{"ha":424,"x_min":0,"x_max":0,"o":"m 321 1246 l 194 1246 l 128 1074 l 189 1074 z m 281 -8 b 381 13 322 -8 357 0 l 368 71 b 328 64 368 71 351 64 b 229 190 269 64 229 94 l 229 1014 l 114 1014 l 114 185 b 281 -8 114 44 194 -8 z "},"ľ":{"ha":454,"x_min":0,"x_max":0,"o":"m 281 -8 b 381 13 322 -8 357 0 l 368 71 b 328 64 368 71 351 64 b 229 190 269 64 229 94 l 229 1014 l 114 1014 l 114 185 b 281 -8 114 44 194 -8 z m 481 975 l 354 975 l 288 801 l 349 801 z "},"ļ":{"ha":424,"x_min":0,"x_max":0,"o":"m 281 -8 b 381 13 322 -8 357 0 l 368 71 b 328 64 368 71 351 64 b 229 190 269 64 229 94 l 229 1014 l 114 1014 l 114 185 b 281 -8 114 44 194 -8 z m 225 -58 b 199 -181 151 -58 135 -153 b 229 -222 213 -190 235 -193 b 149 -272 225 -237 199 -261 l 158 -311 b 303 -158 278 -287 303 -212 b 225 -58 303 -101 275 -58 z "},"ł":{"ha":431,"x_min":0,"x_max":0,"o":"m 401 536 l 401 628 l 229 532 l 229 1014 l 114 1014 l 114 468 l 0 404 l 0 313 l 114 376 l 114 185 b 281 -8 114 44 194 -8 b 381 13 322 -8 357 0 l 368 71 b 328 64 368 71 351 64 b 229 190 269 64 229 94 l 229 440 z "},"m":{"ha":1215,"x_min":0,"x_max":0,"o":"m 107 0 l 224 0 l 224 440 b 278 567 224 504 243 536 b 422 617 311 594 356 617 b 529 568 469 617 507 599 b 558 460 550 542 558 508 l 558 0 l 674 0 l 674 447 b 739 572 674 519 707 547 b 863 615 768 594 811 615 b 964 572 907 615 942 603 b 992 461 983 546 992 508 l 992 0 l 1110 0 l 1110 468 b 897 707 1110 618 1032 707 b 682 622 808 707 751 678 b 653 606 671 614 663 606 b 629 622 640 606 638 613 b 446 707 586 682 524 708 b 247 629 364 707 306 678 b 203 644 229 614 213 613 l 189 694 l 107 694 z "},"n":{"ha":786,"x_min":0,"x_max":0,"o":"m 107 0 l 224 0 l 224 442 b 278 567 224 506 242 538 b 424 617 313 596 358 617 b 528 578 468 617 504 604 b 563 461 551 550 563 515 l 563 0 l 681 0 l 681 461 b 633 625 681 528 664 583 b 454 707 596 678 536 707 b 247 631 371 707 310 681 b 203 646 229 617 211 617 l 189 694 l 107 694 z "},"ń":{"ha":786,"x_min":0,"x_max":0,"o":"m 542 940 l 415 940 l 349 768 l 410 768 z m 107 0 l 224 0 l 224 442 b 278 567 224 506 242 538 b 424 617 313 596 358 617 b 528 578 468 617 504 604 b 563 461 551 550 563 515 l 563 0 l 681 0 l 681 461 b 633 625 681 528 664 583 b 454 707 596 678 536 707 b 247 631 371 707 310 681 b 203 646 229 617 211 617 l 189 694 l 107 694 z "},"ň":{"ha":786,"x_min":0,"x_max":0,"o":"m 436 767 l 618 951 l 561 951 l 415 858 l 279 951 l 213 951 l 393 767 z m 633 625 b 454 707 596 678 536 707 b 247 631 371 707 310 681 b 203 646 229 617 211 617 l 189 694 l 107 694 l 107 0 l 224 0 l 224 442 b 278 567 224 506 242 538 b 424 617 313 596 358 617 b 528 578 468 617 504 604 b 563 461 551 550 563 515 l 563 0 l 681 0 l 681 461 b 633 625 681 528 664 583 z "},"ņ":{"ha":783,"x_min":0,"x_max":0,"o":"m 107 0 l 224 0 l 224 442 b 278 567 224 506 242 538 b 424 617 313 596 358 617 b 528 578 468 617 504 604 b 563 461 551 550 563 515 l 563 0 l 681 0 l 681 461 b 633 625 681 528 664 583 b 454 707 596 678 536 707 b 247 631 371 707 310 681 b 203 646 229 617 211 617 l 189 694 l 107 694 z m 383 -58 b 357 -181 310 -58 293 -153 b 388 -222 371 -190 393 -193 b 307 -272 383 -237 357 -261 l 317 -311 b 461 -158 436 -287 461 -212 b 383 -58 461 -101 433 -58 z "},"ŋ":{"ha":783,"x_min":0,"x_max":0,"o":"m 454 707 b 247 632 371 707 310 681 b 203 646 229 618 211 618 l 189 694 l 107 694 l 107 0 l 224 0 l 224 442 b 278 568 224 506 242 538 b 424 618 313 596 358 618 b 528 578 465 618 504 604 b 563 461 551 550 563 515 l 563 -68 b 464 -193 563 -162 522 -193 b 424 -187 440 -193 424 -187 l 411 -246 b 511 -265 436 -257 469 -265 b 678 -74 597 -265 678 -212 l 678 461 b 454 707 678 611 596 707 z "},"ñ":{"ha":786,"x_min":0,"x_max":0,"o":"m 279 767 l 225 767 b 336 917 229 853 268 917 b 429 878 368 917 397 896 b 500 844 456 861 481 844 b 551 911 522 844 543 860 l 606 911 b 493 761 603 824 565 761 b 396 800 461 761 426 781 b 326 833 368 818 349 833 b 279 767 301 833 285 813 z m 107 0 l 224 0 l 224 442 b 278 567 224 506 242 538 b 424 617 313 596 358 617 b 528 578 468 617 504 604 b 563 461 551 550 563 515 l 563 0 l 681 0 l 681 461 b 633 625 681 528 664 583 b 454 707 596 678 536 707 b 247 631 371 707 310 681 b 203 646 229 617 211 617 l 189 694 l 107 694 z "},"o":{"ha":786,"x_min":0,"x_max":0,"o":"m 393 -14 b 722 344 586 -14 722 121 b 393 708 722 568 586 708 b 64 344 200 708 64 568 b 393 -14 64 121 200 -14 z m 393 67 b 186 344 261 67 186 168 b 393 628 186 514 261 628 b 600 344 525 628 600 514 b 393 67 600 175 525 67 z "},"ó":{"ha":786,"x_min":0,"x_max":0,"o":"m 522 940 l 396 940 l 329 768 l 390 768 z m 393 -14 b 722 344 586 -14 722 121 b 393 708 722 568 586 708 b 64 344 200 708 64 568 b 393 -14 64 121 200 -14 z m 393 67 b 186 344 261 67 186 168 b 393 628 186 514 261 628 b 600 344 525 628 600 514 b 393 67 600 175 525 67 z "},"ô":{"ha":786,"x_min":0,"x_max":0,"o":"m 396 864 l 535 767 l 596 767 l 417 951 l 374 951 l 196 767 l 249 767 z m 393 708 b 64 344 200 708 64 568 b 393 -14 64 121 200 -14 b 722 344 586 -14 722 121 b 393 708 722 568 586 708 z m 393 67 b 186 344 261 67 186 168 b 393 628 186 514 261 628 b 600 344 525 628 600 514 b 393 67 600 175 525 67 z "},"ö":{"ha":786,"x_min":0,"x_max":0,"o":"m 250 788 b 324 861 290 788 324 821 b 250 935 324 901 290 935 b 176 861 210 935 176 901 b 250 788 176 821 210 788 z m 532 788 b 606 861 572 788 606 821 b 532 935 606 901 572 935 b 458 861 492 935 458 901 b 532 788 458 821 492 788 z m 393 -14 b 722 344 586 -14 722 121 b 393 708 722 568 586 708 b 64 344 200 708 64 568 b 393 -14 64 121 200 -14 z m 393 67 b 186 344 261 67 186 168 b 393 628 186 514 261 628 b 600 344 525 628 600 514 b 393 67 600 175 525 67 z "},"ò":{"ha":786,"x_min":0,"x_max":0,"o":"m 256 940 l 388 768 l 449 768 l 382 940 z m 393 -14 b 722 344 586 -14 722 121 b 393 708 722 568 586 708 b 64 344 200 708 64 568 b 393 -14 64 121 200 -14 z m 393 67 b 186 344 261 67 186 168 b 393 628 186 514 261 628 b 600 344 525 628 600 514 b 393 67 600 175 525 67 z "},"ő":{"ha":786,"x_min":0,"x_max":0,"o":"m 418 940 l 292 940 l 225 768 l 286 768 z m 608 940 l 482 940 l 415 768 l 476 768 z m 393 -14 b 722 344 586 -14 722 121 b 393 708 722 568 586 708 b 64 344 200 708 64 568 b 393 -14 64 121 200 -14 z m 393 67 b 186 344 261 67 186 168 b 393 628 186 514 261 628 b 600 344 525 628 600 514 b 393 67 600 175 525 67 z "},"ō":{"ha":786,"x_min":0,"x_max":0,"o":"m 168 874 l 168 797 l 625 797 l 625 874 z m 393 -14 b 722 344 586 -14 722 121 b 393 708 722 568 586 708 b 64 344 200 708 64 568 b 393 -14 64 121 200 -14 z m 393 67 b 186 344 261 67 186 168 b 393 628 186 514 261 628 b 600 344 525 628 600 514 b 393 67 600 175 525 67 z "},"ø":{"ha":786,"x_min":0,"x_max":0,"o":"m 393 -14 b 721 344 585 -14 721 121 b 393 708 721 568 585 708 b 65 344 201 708 65 568 b 393 -14 65 121 201 -14 z m 203 215 b 186 344 192 253 186 296 b 393 628 186 514 261 628 b 547 547 460 628 511 599 z m 393 67 b 236 146 324 67 271 94 l 581 479 b 600 344 593 440 600 394 b 393 67 600 175 525 67 z "},"õ":{"ha":786,"x_min":0,"x_max":0,"o":"m 260 767 l 206 767 b 317 917 210 853 249 917 b 410 878 349 917 378 896 b 481 844 436 861 461 844 b 532 911 503 844 524 860 l 586 911 b 474 761 583 824 546 761 b 376 800 442 761 407 781 b 307 833 349 818 329 833 b 260 767 282 833 265 813 z m 393 -14 b 722 344 586 -14 722 121 b 393 708 722 568 586 708 b 64 344 200 708 64 568 b 393 -14 64 121 200 -14 z m 393 67 b 186 344 261 67 186 168 b 393 628 186 514 261 628 b 600 344 525 628 600 514 b 393 67 600 175 525 67 z "},"œ":{"ha":1265,"x_min":0,"x_max":0,"o":"m 1199 371 b 910 707 1199 569 1096 707 b 649 563 794 707 703 656 b 385 708 593 656 500 708 b 63 344 196 708 63 568 b 383 -14 63 121 194 -14 b 646 131 493 -14 589 39 b 681 81 656 111 668 94 b 915 -12 736 21 817 -12 b 1193 104 1018 -12 1122 28 l 1149 154 b 931 68 1088 99 1007 68 b 753 153 860 68 794 94 b 708 325 725 196 710 254 l 1196 325 b 1199 371 1199 344 1199 360 z m 907 628 b 1078 414 1025 628 1078 529 l 1078 407 l 713 406 b 907 628 717 554 804 628 z m 385 67 b 183 344 256 67 183 168 b 385 628 183 514 257 628 b 594 344 518 628 594 514 b 385 67 594 175 518 67 z "},"p":{"ha":797,"x_min":0,"x_max":0,"o":"m 658 600 b 440 708 606 669 529 708 b 246 636 361 708 301 681 b 225 626 239 631 232 626 b 206 646 217 628 210 633 l 189 694 l 107 694 l 107 -264 l 224 -264 l 224 53 b 410 -12 275 6 349 -12 b 646 92 507 -12 589 25 b 733 350 701 154 733 244 b 658 600 733 453 706 538 z m 556 139 b 400 67 518 92 464 67 b 272 106 354 67 308 78 b 224 190 250 124 224 153 l 224 469 b 279 578 224 513 246 550 b 418 628 315 610 367 628 b 572 539 485 628 538 597 b 613 349 599 493 613 429 b 556 139 613 257 593 186 z "},"þ":{"ha":781,"x_min":0,"x_max":0,"o":"m 415 708 b 213 622 340 708 263 678 l 213 1014 l 97 1014 l 97 -264 l 213 -264 l 213 53 b 399 -14 264 6 336 -14 b 722 349 589 -14 722 132 b 415 708 722 554 604 708 z m 389 67 b 261 106 343 67 297 78 b 213 190 239 124 213 153 l 213 468 b 267 578 213 517 235 550 b 406 628 304 608 356 628 b 603 349 528 628 603 525 b 389 67 603 163 517 67 z "},"q":{"ha":800,"x_min":0,"x_max":0,"o":"m 608 694 l 594 653 b 576 639 590 644 585 640 b 558 647 571 639 565 642 b 376 708 510 683 449 708 b 161 619 289 708 215 676 b 64 349 100 556 64 461 b 160 76 64 243 97 144 b 376 -14 213 21 285 -14 b 575 82 464 -14 538 32 l 575 -264 l 693 -264 l 693 694 z m 547 138 b 394 64 508 90 453 64 b 244 133 333 64 282 88 b 183 346 206 181 183 251 b 249 563 183 442 207 515 b 408 629 288 607 342 629 b 549 578 482 629 532 593 b 575 519 564 563 575 549 l 575 231 b 547 138 575 182 568 163 z "},"r":{"ha":525,"x_min":0,"x_max":0,"o":"m 107 0 l 224 0 l 224 444 b 275 569 224 506 240 542 b 407 608 313 599 361 608 b 474 601 431 608 454 606 l 492 685 b 401 703 492 685 457 703 b 243 631 311 703 265 657 b 204 632 225 611 208 613 l 190 694 l 107 694 z "},"ŕ":{"ha":525,"x_min":0,"x_max":0,"o":"m 408 940 l 282 940 l 215 768 l 276 768 z m 107 0 l 224 0 l 224 444 b 275 569 224 506 240 542 b 407 608 313 599 361 608 b 474 601 431 608 454 606 l 492 685 b 401 703 492 685 457 703 b 243 631 311 703 265 657 b 204 632 225 611 208 613 l 190 694 l 107 694 z "},"ř":{"ha":525,"x_min":0,"x_max":0,"o":"m 304 767 l 486 951 l 429 951 l 283 858 l 147 951 l 81 951 l 261 767 z m 401 703 b 243 631 311 703 265 657 b 204 632 225 611 208 613 l 190 694 l 107 694 l 107 0 l 224 0 l 224 444 b 275 569 224 506 240 542 b 407 608 313 599 361 608 b 474 601 431 608 454 606 l 492 685 b 401 703 492 685 457 703 z "},"ŗ":{"ha":525,"x_min":0,"x_max":0,"o":"m 107 0 l 224 0 l 224 444 b 275 569 224 506 240 542 b 407 608 313 599 361 608 b 474 601 431 608 454 606 l 492 685 b 401 703 492 685 457 703 b 243 631 311 703 265 657 b 204 632 225 611 208 613 l 190 694 l 107 694 z m 174 -58 b 147 -181 99 -58 83 -153 b 178 -222 161 -190 183 -193 b 96 -272 172 -237 147 -261 l 106 -311 b 251 -158 225 -287 250 -212 b 174 -58 251 -101 222 -58 z "},"s":{"ha":661,"x_min":0,"x_max":0,"o":"m 353 -14 b 597 197 493 -14 597 63 b 364 411 597 340 475 379 b 186 533 272 438 186 460 b 331 633 186 599 242 633 b 535 565 438 633 503 592 l 572 615 b 324 708 526 660 443 708 b 75 518 183 708 75 647 b 279 321 75 390 178 351 b 486 174 383 290 486 268 b 343 64 486 106 426 64 b 90 150 236 64 149 104 l 53 96 b 353 -14 111 42 204 -14 z "},"ś":{"ha":661,"x_min":0,"x_max":0,"o":"m 454 940 l 328 940 l 261 768 l 322 768 z m 353 -14 b 597 197 493 -14 597 63 b 364 411 597 340 475 379 b 186 533 272 438 186 460 b 331 633 186 599 242 633 b 535 565 438 633 503 592 l 572 615 b 324 708 526 660 443 708 b 75 518 183 708 75 647 b 279 321 75 390 178 351 b 486 174 383 290 486 268 b 343 64 486 106 426 64 b 90 150 236 64 149 104 l 53 96 b 353 -14 111 42 204 -14 z "},"š":{"ha":661,"x_min":0,"x_max":0,"o":"m 349 767 l 531 951 l 474 951 l 328 858 l 192 951 l 125 951 l 306 767 z m 364 411 b 186 533 272 438 186 460 b 331 633 186 599 242 633 b 535 565 438 633 503 592 l 572 615 b 324 708 526 660 443 708 b 75 518 183 708 75 647 b 279 321 75 390 178 351 b 486 174 383 290 486 268 b 343 64 486 106 426 64 b 90 150 236 64 149 104 l 53 96 b 353 -14 111 42 204 -14 b 597 197 493 -14 597 63 b 364 411 597 340 475 379 z "},"ş":{"ha":661,"x_min":0,"x_max":0,"o":"m 354 -12 b 597 197 493 -12 597 63 b 364 411 597 340 475 379 b 186 533 272 438 186 460 b 331 633 186 599 242 633 b 535 565 438 633 503 592 l 572 615 b 324 708 526 660 443 708 b 75 518 183 708 75 647 b 279 321 75 390 178 351 b 486 174 383 290 486 268 b 343 64 486 106 426 64 b 90 150 236 64 149 104 l 53 96 b 292 -10 103 50 178 3 l 229 -97 l 271 -135 b 332 -111 288 -119 310 -111 b 393 -167 369 -111 393 -133 b 321 -222 393 -200 365 -222 b 207 -178 285 -222 240 -206 l 178 -214 b 338 -282 221 -261 282 -282 b 481 -171 414 -282 481 -243 b 363 -60 481 -106 432 -60 b 344 -61 357 -60 350 -60 b 333 -60 339 -61 335 -61 b 333 -46 331 -57 331 -51 z "},"ș":{"ha":661,"x_min":0,"x_max":0,"o":"m 353 -14 b 597 197 493 -14 597 63 b 364 411 597 340 475 379 b 186 533 272 438 186 460 b 331 633 186 599 242 633 b 535 565 438 633 503 592 l 572 615 b 324 708 526 660 443 708 b 75 518 183 708 75 647 b 279 321 75 390 178 351 b 486 174 383 290 486 268 b 343 64 486 106 426 64 b 90 150 236 64 149 104 l 53 96 b 353 -14 111 42 204 -14 z m 329 -58 b 303 -181 254 -58 239 -153 b 333 -222 317 -190 339 -193 b 251 -272 328 -237 303 -261 l 261 -311 b 407 -158 381 -287 406 -212 b 329 -58 407 -101 378 -58 z "},"t":{"ha":522,"x_min":0,"x_max":0,"o":"m 179 883 b 36 690 164 742 163 717 l 36 622 l 146 622 l 146 192 b 346 -10 146 58 221 -10 b 471 21 392 -10 440 4 l 457 78 b 376 68 435 72 400 68 b 260 197 314 68 260 90 l 260 622 l 464 622 l 464 694 l 260 694 l 260 883 z "},"ŧ":{"ha":522,"x_min":0,"x_max":0,"o":"m 457 78 b 376 68 435 72 400 68 b 260 197 314 68 260 90 l 260 365 l 458 365 l 458 440 l 260 440 l 260 622 l 464 622 l 464 694 l 260 694 l 260 883 l 179 883 b 36 690 164 742 163 717 l 36 622 l 146 622 l 146 440 l 29 440 l 29 365 l 146 365 l 146 192 b 346 -10 146 58 221 -10 b 471 21 392 -10 440 4 z "},"ť":{"ha":536,"x_min":0,"x_max":0,"o":"m 511 947 l 385 947 l 318 775 l 379 775 z m 179 883 b 36 690 164 742 163 717 l 36 622 l 146 622 l 146 192 b 346 -10 146 58 221 -10 b 471 21 392 -10 440 4 l 457 78 b 376 68 435 72 400 68 b 260 197 314 68 260 90 l 260 622 l 464 622 l 464 694 l 260 694 l 260 883 z "},"ţ":{"ha":522,"x_min":0,"x_max":0,"o":"m 326 -56 b 308 -57 321 -56 314 -56 b 297 -56 303 -57 299 -57 b 297 -42 294 -53 294 -47 l 318 -8 b 346 -10 326 -10 336 -10 b 471 21 392 -10 440 4 l 457 78 b 376 68 435 72 400 68 b 260 197 314 68 260 90 l 260 622 l 464 622 l 464 694 l 260 694 l 260 883 l 179 883 b 36 690 164 742 163 717 l 36 622 l 146 622 l 146 192 b 261 3 146 92 188 29 l 193 -93 l 235 -131 b 296 -107 251 -115 274 -107 b 357 -162 333 -107 357 -129 b 285 -218 357 -196 329 -218 b 171 -174 249 -218 204 -201 l 142 -210 b 301 -278 185 -257 246 -278 b 444 -167 378 -278 444 -239 b 326 -56 444 -101 396 -56 z "},"ț":{"ha":522,"x_min":0,"x_max":0,"o":"m 179 883 b 36 690 164 742 163 717 l 36 622 l 146 622 l 146 192 b 346 -10 146 58 221 -10 b 471 21 392 -10 440 4 l 457 78 b 376 68 435 72 400 68 b 260 197 314 68 260 90 l 260 622 l 464 622 l 464 694 l 260 694 l 260 883 z m 293 -54 b 267 -176 218 -54 203 -149 b 297 -218 281 -186 303 -189 b 215 -268 292 -233 267 -257 l 225 -307 b 371 -154 344 -283 369 -208 b 293 -54 371 -97 342 -54 z "},"u":{"ha":778,"x_min":0,"x_max":0,"o":"m 329 -14 b 532 64 410 -15 468 11 b 551 72 538 69 544 72 b 574 51 561 72 569 67 l 589 0 l 668 0 l 668 694 l 550 694 l 550 229 b 513 131 550 182 542 161 b 365 74 482 103 429 74 b 217 244 260 74 217 142 l 217 694 l 99 694 l 99 232 b 172 43 99 147 128 85 b 329 -14 215 4 272 -12 z "},"ú":{"ha":778,"x_min":0,"x_max":0,"o":"m 511 940 l 385 940 l 318 768 l 379 768 z m 329 -14 b 532 64 410 -15 468 11 b 551 72 538 69 544 72 b 574 51 561 72 569 67 l 589 0 l 668 0 l 668 694 l 550 694 l 550 229 b 513 131 550 182 542 161 b 365 74 482 103 429 74 b 217 244 260 74 217 142 l 217 694 l 99 694 l 99 232 b 172 43 99 147 128 85 b 329 -14 215 4 272 -12 z "},"û":{"ha":778,"x_min":0,"x_max":0,"o":"m 385 864 l 524 767 l 585 767 l 406 951 l 363 951 l 185 767 l 238 767 z m 550 694 l 550 229 b 513 131 550 182 542 161 b 365 74 482 103 429 74 b 217 244 260 74 217 142 l 217 694 l 99 694 l 99 232 b 172 43 99 147 128 85 b 329 -14 215 4 272 -12 b 532 64 410 -15 468 11 b 551 72 538 69 544 72 b 574 51 561 72 569 67 l 589 0 l 668 0 l 668 694 z "},"ü":{"ha":778,"x_min":0,"x_max":0,"o":"m 239 788 b 313 861 279 788 313 821 b 239 935 313 901 279 935 b 165 861 199 935 165 901 b 239 788 165 821 199 788 z m 521 788 b 594 861 561 788 594 821 b 521 935 594 901 561 935 b 447 861 481 935 447 901 b 521 788 447 821 481 788 z m 329 -14 b 532 64 410 -15 468 11 b 551 72 538 69 544 72 b 574 51 561 72 569 67 l 589 0 l 668 0 l 668 694 l 550 694 l 550 229 b 513 131 550 182 542 161 b 365 74 482 103 429 74 b 217 244 260 74 217 142 l 217 694 l 99 694 l 99 232 b 172 43 99 147 128 85 b 329 -14 215 4 272 -12 z "},"ù":{"ha":778,"x_min":0,"x_max":0,"o":"m 244 940 l 376 768 l 438 768 l 371 940 z m 329 -14 b 532 64 410 -15 468 11 b 551 72 538 69 544 72 b 574 51 561 72 569 67 l 589 0 l 668 0 l 668 694 l 550 694 l 550 229 b 513 131 550 182 542 161 b 365 74 482 103 429 74 b 217 244 260 74 217 142 l 217 694 l 99 694 l 99 232 b 172 43 99 147 128 85 b 329 -14 215 4 272 -12 z "},"ű":{"ha":778,"x_min":0,"x_max":0,"o":"m 407 940 l 281 940 l 214 768 l 275 768 z m 597 940 l 471 940 l 404 768 l 465 768 z m 329 -14 b 532 64 410 -15 468 11 b 551 72 538 69 544 72 b 574 51 561 72 569 67 l 589 0 l 668 0 l 668 694 l 550 694 l 550 229 b 513 131 550 182 542 161 b 365 74 482 103 429 74 b 217 244 260 74 217 142 l 217 694 l 99 694 l 99 232 b 172 43 99 147 128 85 b 329 -14 215 4 272 -12 z "},"ū":{"ha":778,"x_min":0,"x_max":0,"o":"m 157 874 l 157 797 l 614 797 l 614 874 z m 329 -14 b 532 64 410 -15 468 11 b 551 72 538 69 544 72 b 574 51 561 72 569 67 l 589 0 l 668 0 l 668 694 l 550 694 l 550 229 b 513 131 550 182 542 161 b 365 74 482 103 429 74 b 217 244 260 74 217 142 l 217 694 l 99 694 l 99 232 b 172 43 99 147 128 85 b 329 -14 215 4 272 -12 z "},"ų":{"ha":778,"x_min":0,"x_max":0,"o":"m 697 -182 b 599 -219 667 -206 631 -219 b 529 -150 560 -219 529 -197 b 668 0 529 -79 608 -25 l 668 694 l 550 694 l 550 229 b 513 131 550 182 542 161 b 365 74 482 103 429 74 b 217 244 260 74 217 142 l 217 694 l 99 694 l 99 232 b 172 43 99 147 128 85 b 329 -14 215 4 272 -12 b 532 64 410 -15 468 11 b 551 72 538 69 544 72 b 574 51 561 72 569 67 l 588 1 b 428 -162 531 -18 428 -62 b 569 -279 428 -240 496 -279 b 704 -231 617 -279 668 -262 z "},"ů":{"ha":778,"x_min":0,"x_max":0,"o":"m 514 871 b 386 767 514 803 461 767 b 258 871 311 767 258 803 b 386 979 258 942 311 979 b 514 871 461 979 514 943 z m 453 871 b 386 935 454 908 428 935 b 319 871 346 935 319 910 b 386 811 319 835 346 811 b 453 871 426 811 454 833 z m 329 -14 b 532 64 410 -15 468 11 b 551 72 538 69 544 72 b 574 51 561 72 569 67 l 589 0 l 668 0 l 668 694 l 550 694 l 550 229 b 513 131 550 182 542 161 b 365 74 482 103 429 74 b 217 244 260 74 217 142 l 217 694 l 99 694 l 99 232 b 172 43 99 147 128 85 b 329 -14 215 4 272 -12 z "},"v":{"ha":735,"x_min":0,"x_max":0,"o":"m 303 0 l 431 0 l 694 694 l 596 694 l 401 157 b 376 86 393 138 385 113 b 354 158 369 111 363 138 l 157 694 l 29 694 z "},"w":{"ha":1051,"x_min":0,"x_max":0,"o":"m 264 0 l 390 0 l 525 375 b 536 406 528 385 532 396 l 669 0 l 796 0 l 1011 694 l 925 694 l 753 135 b 742 100 749 124 746 111 l 740 100 l 732 132 l 558 694 l 438 694 l 464 615 b 471 456 486 539 486 499 l 353 140 l 336 99 l 335 99 b 324 140 332 113 328 126 l 150 694 l 29 694 z "},"ẃ":{"ha":1051,"x_min":0,"x_max":0,"o":"m 647 940 l 521 940 l 454 768 l 515 768 z m 264 0 l 390 0 l 525 375 b 536 406 528 385 532 396 l 669 0 l 796 0 l 1011 694 l 925 694 l 753 135 b 742 100 749 124 746 111 l 740 100 l 732 132 l 558 694 l 438 694 l 464 615 b 471 456 486 539 486 499 l 353 140 l 336 99 l 335 99 b 324 140 332 113 328 126 l 150 694 l 29 694 z "},"ŵ":{"ha":1051,"x_min":0,"x_max":0,"o":"m 521 864 l 660 767 l 721 767 l 542 951 l 499 951 l 321 767 l 374 767 z m 925 694 l 753 135 b 742 100 749 124 746 111 l 740 100 l 732 132 l 558 694 l 438 694 l 464 615 b 471 456 486 539 486 499 l 353 140 l 336 99 l 335 99 b 324 140 332 113 328 126 l 150 694 l 29 694 l 264 0 l 390 0 l 525 375 b 536 406 528 385 532 396 l 669 0 l 796 0 l 1011 694 z "},"ẅ":{"ha":1051,"x_min":0,"x_max":0,"o":"m 375 788 b 449 861 415 788 449 821 b 375 935 449 901 415 935 b 301 861 335 935 301 901 b 375 788 301 821 335 788 z m 657 788 b 731 861 697 788 731 821 b 657 935 731 901 697 935 b 583 861 617 935 583 901 b 657 788 583 821 617 788 z m 264 0 l 390 0 l 525 375 b 536 406 528 385 532 396 l 669 0 l 796 0 l 1011 694 l 925 694 l 753 135 b 742 100 749 124 746 111 l 740 100 l 732 132 l 558 694 l 438 694 l 464 615 b 471 456 486 539 486 499 l 353 140 l 336 99 l 335 99 b 324 140 332 113 328 126 l 150 694 l 29 694 z "},"ẁ":{"ha":1051,"x_min":0,"x_max":0,"o":"m 381 940 l 513 768 l 574 768 l 507 940 z m 264 0 l 390 0 l 525 375 b 536 406 528 385 532 396 l 669 0 l 796 0 l 1011 694 l 925 694 l 753 135 b 742 100 749 124 746 111 l 740 100 l 732 132 l 558 694 l 438 694 l 464 615 b 471 456 486 539 486 499 l 353 140 l 336 99 l 335 99 b 324 140 332 113 328 126 l 150 694 l 29 694 z "},"x":{"ha":742,"x_min":0,"x_max":0,"o":"m 472 310 b 469 407 442 351 442 368 l 682 694 l 575 694 l 396 449 b 381 428 390 442 386 435 l 367 449 l 192 694 l 56 694 l 272 396 b 264 306 301 356 290 342 l 38 0 l 146 0 l 344 272 b 357 289 349 278 353 283 l 369 271 l 557 0 l 696 0 z "},"y":{"ha":694,"x_min":0,"x_max":0,"o":"m 549 694 b 357 86 476 436 396 199 b 319 256 350 149 338 194 b 154 694 296 326 221 529 l 25 694 b 258 122 140 428 225 217 b 267 -67 294 7 294 -1 b 76 -196 228 -151 163 -196 b 11 -187 39 -196 11 -187 l -4 -246 b 92 -268 22 -258 64 -267 b 365 -90 194 -269 278 -237 b 543 351 429 18 488 185 b 654 694 618 574 654 694 z "},"ý":{"ha":694,"x_min":0,"x_max":0,"o":"m 475 940 l 349 940 l 282 768 l 343 768 z m 549 694 b 357 86 476 436 396 199 b 319 256 350 149 338 194 b 154 694 296 326 221 529 l 25 694 b 258 122 140 428 225 217 b 267 -67 294 7 294 -1 b 76 -196 228 -151 163 -196 b 11 -187 39 -196 11 -187 l -4 -246 b 92 -268 22 -258 64 -267 b 365 -90 194 -269 278 -237 b 543 351 429 18 488 185 b 654 694 618 574 654 694 z "},"ŷ":{"ha":694,"x_min":0,"x_max":0,"o":"m 349 864 l 488 767 l 549 767 l 369 951 l 326 951 l 149 767 l 201 767 z m 549 694 b 357 86 476 436 396 199 b 319 256 350 149 338 194 b 154 694 296 326 221 529 l 25 694 b 258 122 140 428 225 217 b 267 -67 294 7 294 -1 b 76 -196 228 -151 163 -196 b 11 -187 39 -196 11 -187 l -4 -246 b 92 -268 22 -258 64 -267 b 365 -90 194 -269 278 -237 b 543 351 429 18 488 185 b 654 694 618 574 654 694 z "},"ÿ":{"ha":694,"x_min":0,"x_max":0,"o":"m 203 788 b 276 861 243 788 276 821 b 203 935 276 901 243 935 b 129 861 163 935 129 901 b 203 788 129 821 163 788 z m 485 788 b 558 861 525 788 558 821 b 485 935 558 901 525 935 b 411 861 444 935 411 901 b 485 788 411 821 444 788 z m 549 694 b 357 86 476 436 396 199 b 319 256 350 149 338 194 b 154 694 296 326 221 529 l 25 694 b 258 122 140 428 225 217 b 267 -67 294 7 294 -1 b 76 -196 228 -151 163 -196 b 11 -187 39 -196 11 -187 l -4 -246 b 92 -268 22 -258 64 -267 b 365 -90 194 -269 278 -237 b 543 351 429 18 488 185 b 654 694 618 574 654 694 z "},"ỳ":{"ha":694,"x_min":0,"x_max":0,"o":"m 401 768 l 335 940 l 208 940 l 340 768 z m 549 694 b 357 86 476 436 396 199 b 319 256 350 149 338 194 b 154 694 296 326 221 529 l 25 694 b 258 122 140 428 225 217 b 267 -67 294 7 294 -1 b 76 -196 228 -151 163 -196 b 11 -187 39 -196 11 -187 l -4 -246 b 92 -268 22 -258 64 -267 b 365 -90 194 -269 278 -237 b 543 351 429 18 488 185 b 654 694 618 574 654 694 z "},"z":{"ha":708,"x_min":0,"x_max":0,"o":"m 211 81 l 235 110 l 614 622 l 614 694 l 85 694 l 85 619 l 485 617 b 467 593 479 608 472 600 l 75 74 l 75 0 l 633 0 l 633 78 z "},"ź":{"ha":708,"x_min":0,"x_max":0,"o":"m 481 940 l 354 940 l 288 768 l 349 768 z m 211 81 l 235 110 l 614 622 l 614 694 l 85 694 l 85 619 l 485 617 b 467 593 479 608 472 600 l 75 74 l 75 0 l 633 0 l 633 78 z "},"ž":{"ha":708,"x_min":0,"x_max":0,"o":"m 375 767 l 557 951 l 500 951 l 354 858 l 218 951 l 151 951 l 332 767 z m 211 81 l 235 110 l 614 622 l 614 694 l 85 694 l 85 619 l 485 617 b 467 593 479 608 472 600 l 75 74 l 75 0 l 633 0 l 633 78 z "},"ż":{"ha":708,"x_min":0,"x_max":0,"o":"m 354 786 b 433 865 399 786 433 822 b 354 944 433 910 399 944 b 275 865 311 944 275 910 b 354 786 275 822 311 786 z m 211 81 l 235 110 l 614 622 l 614 694 l 85 694 l 85 619 l 485 617 b 467 593 479 608 472 600 l 75 74 l 75 0 l 633 0 l 633 78 z "},"º":{"ha":7618,"x_min":0,"x_max":0,"o":"m 7097 0 l 6969 0 l 6786 300 b 6758 394 6765 333 6757 365 l 6671 310 b 6604 142 6617 258 6604 226 l 6604 0 l 6490 0 l 6490 1014 l 6604 1014 l 6604 419 b 6597 351 6604 397 6601 371 b 6707 463 6615 371 6649 407 b 6961 694 6856 601 6961 694 l 7076 694 l 6847 478 b 6832 449 6838 469 6832 460 b 6847 403 6831 436 6836 421 z m 915 0 l 776 0 l 506 422 b 467 543 481 460 467 506 l 374 438 b 249 169 285 336 249 288 l 249 0 l 125 0 l 125 975 l 249 975 l 249 501 b 242 417 249 479 246 447 b 442 647 299 497 372 574 b 751 975 544 757 675 894 l 868 975 l 567 649 b 544 600 551 633 544 617 b 567 539 544 582 551 563 z m 2660 883 l 2660 694 l 2864 694 l 2864 622 l 2660 622 l 2660 197 b 2776 68 2660 90 2714 68 b 2857 78 2800 68 2835 72 l 2871 21 b 2746 -10 2840 4 2792 -10 b 2546 192 2621 -10 2546 58 l 2546 622 l 2436 622 l 2436 690 b 2579 883 2563 717 2564 742 z m 7356 883 l 7356 694 l 7560 694 l 7560 622 l 7356 622 l 7356 197 b 7472 68 7356 90 7410 68 b 7553 78 7496 68 7531 72 l 7567 21 b 7442 -10 7536 4 7488 -10 b 7242 192 7317 -10 7242 58 l 7242 622 l 7132 622 l 7132 690 b 7275 883 7258 717 7260 742 z m 949 344 b 1278 708 949 568 1085 708 b 1607 344 1471 708 1607 568 b 1278 -14 1607 121 1471 -14 b 949 344 1085 -14 949 121 z m 4828 350 b 4740 92 4828 244 4796 154 b 4504 -12 4683 25 4601 -12 b 4318 53 4443 -12 4369 6 l 4318 -264 l 4201 -264 l 4201 694 l 4283 694 l 4300 646 b 4319 626 4304 633 4311 628 b 4340 636 4326 626 4333 631 b 4535 708 4396 681 4456 708 b 4753 600 4624 708 4700 669 b 4828 350 4800 538 4828 453 z m 1750 694 l 1832 694 l 1846 646 b 1890 631 1854 617 1872 617 b 2097 707 1953 681 2014 707 b 2276 625 2179 707 2239 678 b 2324 461 2307 583 2324 528 l 2324 0 l 2206 0 l 2206 461 b 2171 578 2206 515 2194 550 b 2067 617 2147 604 2111 617 b 1921 567 2001 617 1956 596 b 1867 442 1885 538 1867 506 l 1867 0 l 1750 0 z m 4078 14 b 3994 -10 4058 1 4025 -10 b 3883 49 3946 -10 3911 10 b 3865 60 3878 56 3874 60 b 3842 50 3857 60 3851 57 b 3651 -10 3811 29 3754 -10 b 3447 160 3529 -10 3447 53 b 3664 357 3447 281 3544 325 b 3865 483 3765 385 3865 403 l 3865 494 b 3832 593 3865 539 3854 572 b 3728 628 3807 617 3772 628 b 3606 601 3686 628 3643 619 b 3513 540 3576 588 3539 565 l 3472 594 b 3574 664 3506 625 3549 651 b 3747 707 3625 690 3688 707 b 3921 646 3824 707 3882 688 b 3978 456 3960 606 3978 542 l 3978 126 b 3994 74 3978 99 3985 83 b 4031 61 4004 65 4017 61 b 4067 68 4043 61 4057 64 z m 5728 694 l 5810 694 l 5824 646 b 5868 631 5832 617 5850 617 b 6075 707 5931 681 5992 707 b 6254 625 6157 707 6217 678 b 6301 461 6285 583 6301 528 l 6301 0 l 6183 0 l 6183 461 b 6149 578 6183 515 6172 550 b 6044 617 6125 604 6089 617 b 5899 567 5979 617 5933 596 b 5844 442 5863 538 5844 506 l 5844 0 l 5728 0 z m 3003 694 l 3086 694 l 3100 632 b 3139 631 3104 613 3121 611 b 3297 703 3161 657 3207 703 b 3388 685 3353 703 3388 685 l 3369 601 b 3303 608 3350 606 3326 608 b 3171 569 3257 608 3208 599 b 3119 444 3136 542 3119 506 l 3119 0 l 3003 0 z m 5038 43 b 4964 232 4993 85 4964 147 l 4964 694 l 5082 694 l 5082 244 b 5231 74 5082 142 5125 74 b 5378 131 5294 74 5347 103 b 5415 229 5407 161 5415 182 l 5415 694 l 5533 694 l 5533 0 l 5454 0 l 5439 51 b 5417 72 5435 67 5426 72 b 5397 64 5410 72 5403 69 b 5194 -14 5333 11 5275 -15 b 5038 43 5138 -12 5081 4 z m 1485 344 b 1278 628 1485 514 1410 628 b 1071 344 1146 628 1071 514 b 1278 67 1071 168 1146 67 b 1485 344 1410 67 1485 175 z m 4707 349 b 4667 539 4707 429 4693 493 b 4513 628 4632 597 4579 628 b 4374 578 4461 628 4410 610 b 4318 469 4340 550 4318 513 l 4318 190 b 4367 106 4318 153 4344 124 b 4494 67 4403 78 4449 67 b 4650 139 4558 67 4613 92 b 4707 349 4688 186 4707 257 z m 3865 367 b 3706 296 3836 328 3768 314 b 3600 243 3664 282 3626 269 b 3568 167 3578 224 3568 196 b 3597 93 3568 135 3579 110 b 3678 68 3617 75 3644 68 b 3849 122 3765 68 3818 100 b 3865 150 3857 129 3865 135 z "},"⁄":{"ha":833,"x_min":0,"x_max":0,"o":"m 14 0 l 124 0 l 796 975 l 685 975 z "},"½":{"ha":1215,"x_min":0,"x_max":0,"o":"m 243 0 l 338 0 l 1010 975 l 914 975 z m 214 832 l 214 547 b 193 525 214 533 207 526 l 71 518 l 71 471 b 435 471 185 472 321 472 l 435 518 l 317 525 b 296 547 303 526 296 533 l 296 975 l 240 975 l 236 968 b 86 861 210 917 160 882 l 97 825 b 192 857 126 831 163 842 b 210 861 199 861 204 864 b 214 832 215 860 214 851 z m 903 67 b 890 71 896 67 892 67 b 900 83 889 76 894 79 b 1131 361 1031 169 1131 257 b 963 508 1131 460 1053 508 b 783 408 899 508 826 475 l 824 375 b 954 447 857 419 901 447 b 1046 357 1007 447 1046 418 b 769 49 1046 265 943 171 l 769 0 l 1157 0 l 1157 72 z "},"¼":{"ha":1215,"x_min":0,"x_max":0,"o":"m 243 0 l 338 0 l 1010 975 l 914 975 z m 214 832 l 214 547 b 193 525 214 533 207 526 l 71 518 l 71 471 b 435 471 185 472 321 472 l 435 518 l 317 525 b 296 547 303 526 296 533 l 296 975 l 240 975 l 236 968 b 86 861 210 917 160 882 l 97 825 b 192 857 126 831 163 842 b 210 861 199 861 204 864 b 214 832 215 860 214 851 z m 1042 331 l 1042 188 b 1025 171 1042 176 1036 171 l 819 171 b 806 178 811 171 808 172 b 811 190 804 182 806 186 b 1006 515 900 283 988 410 l 922 515 b 722 172 896 403 815 268 l 722 111 l 1025 111 b 1042 94 1036 111 1042 104 l 1042 0 l 1121 0 l 1121 331 z "},"¾":{"ha":1215,"x_min":0,"x_max":0,"o":"m 243 0 l 338 0 l 1010 975 l 914 975 z m 499 636 b 342 788 499 721 438 788 b 322 786 336 788 329 786 b 311 789 318 786 311 785 b 318 799 311 792 315 794 l 449 925 l 449 975 l 132 975 l 132 907 l 336 907 b 344 903 340 907 344 907 b 339 894 344 899 342 897 l 176 738 l 211 701 b 311 739 238 725 274 739 b 417 633 381 739 417 689 b 297 529 417 563 364 529 b 143 582 249 529 192 547 l 114 535 b 306 467 172 489 242 467 b 499 636 410 467 499 525 z m 1042 331 l 1042 188 b 1025 171 1042 176 1036 171 l 819 171 b 806 181 810 171 806 172 b 811 190 806 183 807 188 b 1006 515 900 283 988 410 l 922 515 b 722 172 896 403 815 268 l 722 111 l 1025 111 b 1042 94 1036 111 1042 104 l 1042 0 l 1121 0 l 1121 331 z "},"*":{"ha":675,"x_min":0,"x_max":0,"o":"m 585 799 l 543 911 l 363 819 l 383 1014 l 264 1014 l 285 819 l 104 911 l 63 799 l 263 751 l 114 597 l 208 524 l 324 708 l 438 524 l 532 597 l 382 751 z "},"\\":{"ha":640,"x_min":0,"x_max":0,"o":"m 203 1072 l 104 1072 l 540 0 l 640 0 z "},"·":{"ha":376,"x_min":0,"x_max":0,"o":"m 189 354 b 272 439 235 354 272 393 b 189 524 272 486 235 524 b 104 439 142 524 104 486 b 189 354 104 393 142 354 z "},"•":{"ha":460,"x_min":0,"x_max":0,"o":"m 229 299 b 369 439 307 299 369 361 b 229 578 369 515 307 578 b 90 439 153 578 90 515 b 229 299 90 361 153 299 z "},":":{"ha":335,"x_min":0,"x_max":0,"o":"m 161 394 b 244 479 207 394 244 433 b 161 564 244 526 207 564 b 76 479 114 564 76 526 b 161 394 76 433 114 394 z m 161 -8 b 244 76 207 -8 244 31 b 161 161 244 124 207 161 b 76 76 114 161 76 124 b 161 -8 76 31 114 -8 z "},",":{"ha":254,"x_min":0,"x_max":0,"o":"m 135 160 b 60 88 88 160 60 128 b 104 21 60 56 78 35 b 135 -22 121 13 142 7 b 35 -100 129 -50 100 -81 l 47 -147 b 219 49 183 -118 218 -31 b 135 160 219 110 189 160 z "},"…":{"ha":904,"x_min":0,"x_max":0,"o":"m 453 -10 b 536 75 499 -10 536 29 b 453 160 536 122 499 160 b 368 75 406 160 368 122 b 453 -10 368 29 406 -10 z m 744 -10 b 828 75 790 -10 828 29 b 744 160 828 122 790 160 b 660 75 697 160 660 122 b 744 -10 660 29 697 -10 z m 161 -10 b 244 75 207 -10 244 29 b 161 160 244 122 207 160 b 76 75 114 160 76 122 b 161 -10 76 29 114 -10 z "},"!":{"ha":376,"x_min":0,"x_max":0,"o":"m 217 278 l 160 278 l 132 607 l 117 975 l 260 975 l 244 607 z m 189 -8 b 272 76 235 -8 272 31 b 189 161 272 124 235 161 b 104 76 142 161 104 124 b 189 -8 104 31 142 -8 z "},"¡":{"ha":418,"x_min":0,"x_max":0,"o":"m 210 706 b 125 621 163 706 125 668 b 210 538 125 575 163 538 b 293 621 256 538 293 575 b 210 706 293 668 256 706 z m 286 -278 l 242 415 l 176 415 l 132 -278 z "},"#":{"ha":878,"x_min":0,"x_max":0,"o":"m 847 635 l 847 694 l 667 694 l 715 975 l 640 975 l 597 757 b 521 694 589 715 569 694 l 350 694 l 400 975 l 325 975 l 281 757 b 204 694 272 715 253 694 l 82 694 l 82 621 l 253 624 l 214 426 b 138 364 206 385 186 364 l 24 364 l 24 290 l 186 293 l 128 0 l 226 0 l 278 294 l 507 299 l 449 0 l 547 0 l 599 300 l 793 304 l 793 364 l 610 364 l 656 631 z m 457 364 l 290 364 l 338 625 l 572 629 l 532 426 b 457 364 524 385 504 364 z "},".":{"ha":321,"x_min":0,"x_max":0,"o":"m 161 -10 b 244 75 207 -10 244 29 b 161 160 244 122 207 160 b 76 75 114 160 76 122 b 161 -10 76 29 114 -10 z "},"?":{"ha":749,"x_min":0,"x_max":0,"o":"m 51 850 l 104 796 b 346 897 174 864 261 897 b 572 696 469 897 572 828 b 283 463 572 575 479 468 l 299 257 l 381 257 l 394 403 b 694 696 571 421 694 540 b 597 917 694 789 661 863 b 368 990 536 967 456 990 b 51 850 254 990 135 942 z m 342 -8 b 425 76 388 -8 425 31 b 342 161 425 124 388 161 b 257 76 294 161 257 124 b 342 -8 257 31 294 -8 z "},"¿":{"ha":754,"x_min":0,"x_max":0,"o":"m 417 721 b 332 636 369 721 332 683 b 417 553 332 590 369 553 b 500 636 463 553 500 590 b 417 721 500 683 463 721 z m 713 -129 l 658 -76 b 411 -185 589 -149 499 -185 b 186 18 288 -185 186 -115 b 475 251 186 139 278 246 l 460 456 l 376 456 l 363 311 b 63 18 186 293 63 174 b 161 -203 63 -76 97 -150 b 389 -278 221 -253 301 -278 b 713 -129 508 -278 629 -225 z "},"\"":{"ha":517,"x_min":0,"x_max":0,"o":"m 83 975 l 100 624 l 186 624 l 203 975 z m 314 975 l 331 624 l 417 624 l 433 975 z "},"'":{"ha":286,"x_min":0,"x_max":0,"o":"m 83 978 l 100 626 l 186 626 l 203 978 z "},";":{"ha":343,"x_min":0,"x_max":0,"o":"m 161 394 b 244 479 207 394 244 433 b 161 564 244 526 207 564 b 76 479 114 564 76 526 b 161 394 76 433 114 394 z m 168 163 b 93 90 121 163 93 131 b 138 24 93 58 111 38 b 168 -19 154 15 175 10 b 68 -97 163 -47 133 -78 l 81 -144 b 253 51 217 -115 251 -28 b 168 163 253 113 222 163 z "},"/":{"ha":664,"x_min":0,"x_max":0,"o":"m 0 -194 l 99 -194 l 615 1072 l 515 1072 z "},"_":{"ha":665,"x_min":0,"x_max":0,"o":"m 35 -111 l 35 -196 l 631 -196 l 631 -111 z "},"{":{"ha":540,"x_min":0,"x_max":0,"o":"m 321 -129 b 289 57 279 -90 285 -22 l 294 167 b 153 421 301 285 306 393 b 294 674 306 447 301 556 l 289 782 b 321 969 285 867 279 931 b 465 990 356 1003 408 1004 l 471 1054 b 240 1018 381 1072 297 1068 b 186 813 190 974 181 914 l 193 688 b 35 450 200 567 213 461 l 35 390 b 193 154 213 381 200 272 l 186 26 b 240 -178 181 -71 190 -135 b 471 -214 300 -231 392 -229 l 465 -150 b 321 -129 408 -164 354 -161 z "},"}":{"ha":533,"x_min":0,"x_max":0,"o":"m 340 688 l 347 813 b 293 1018 353 914 343 974 b 63 1054 236 1068 153 1072 l 68 990 b 213 969 125 1004 178 1003 b 244 782 254 931 249 867 l 239 674 b 382 421 232 556 228 447 b 239 167 228 393 232 285 l 244 57 b 213 -129 249 -22 254 -90 b 68 -150 179 -161 125 -164 l 63 -214 b 293 -178 142 -229 233 -231 b 347 26 343 -135 353 -71 l 340 154 b 499 390 333 272 321 381 l 499 450 b 340 688 321 461 333 567 z "},"[":{"ha":400,"x_min":0,"x_max":0,"o":"m 179 981 l 344 1001 l 344 1056 l 176 1056 l 78 1056 l 78 -210 l 126 -210 l 344 -210 l 344 -156 l 179 -135 l 176 -135 l 176 981 z "},"]":{"ha":400,"x_min":0,"x_max":0,"o":"m 322 1056 l 56 1056 l 56 1001 l 221 981 l 224 981 l 224 -135 l 221 -135 l 56 -156 l 56 -210 l 224 -210 l 322 -210 z "},"(":{"ha":511,"x_min":0,"x_max":0,"o":"m 406 -215 b 51 418 156 -67 51 164 l 51 432 b 406 1064 51 686 156 915 l 447 1008 b 165 425 250 872 165 658 l 165 422 b 449 -160 165 189 250 -24 z "},")":{"ha":511,"x_min":0,"x_max":0,"o":"m 104 -215 l 63 -160 b 346 422 261 -24 346 189 l 346 425 b 64 1008 346 658 261 872 l 104 1064 b 460 432 354 915 460 686 l 460 418 b 104 -215 460 164 354 -67 z "},"—":{"ha":1332,"x_min":0,"x_max":0,"o":"m 125 421 l 125 338 l 1207 338 l 1207 421 z "},"–":{"ha":957,"x_min":0,"x_max":0,"o":"m 125 421 l 125 340 l 832 340 l 832 421 z "},"-":{"ha":615,"x_min":0,"x_max":0,"o":"m 104 425 l 104 332 l 511 332 l 511 425 z "},"«":{"ha":686,"x_min":0,"x_max":0,"o":"m 381 635 l 311 635 l 118 392 l 311 149 l 381 149 l 247 392 z m 603 635 l 533 635 l 340 392 l 533 149 l 603 149 l 469 392 z "},"»":{"ha":679,"x_min":0,"x_max":0,"o":"m 146 635 l 76 635 l 210 392 l 76 149 l 146 149 l 339 392 z m 368 635 l 299 635 l 432 392 l 299 149 l 368 149 l 561 392 z "},"‹":{"ha":429,"x_min":0,"x_max":0,"o":"m 381 635 l 311 635 l 118 392 l 311 149 l 381 149 l 247 392 z "},"›":{"ha":429,"x_min":0,"x_max":0,"o":"m 118 635 l 49 635 l 182 392 l 49 149 l 118 149 l 311 392 z "},"„":{"ha":493,"x_min":0,"x_max":0,"o":"m 138 164 b 65 92 96 164 65 136 b 101 22 65 60 78 35 b 138 3 118 14 131 15 b 139 -25 142 -6 142 -15 b 42 -103 133 -51 106 -85 l 56 -144 b 190 -53 122 -124 165 -90 b 225 65 217 -15 225 28 b 138 164 224 126 188 164 z m 357 164 b 285 92 315 164 285 136 b 321 22 285 60 297 35 b 357 3 338 14 350 15 b 358 -25 361 -6 361 -15 b 261 -103 353 -51 325 -85 l 275 -144 b 410 -53 342 -124 385 -90 b 444 65 436 -15 444 28 b 357 164 443 126 407 164 z "},"“":{"ha":472,"x_min":0,"x_max":0,"o":"m 114 675 b 188 747 157 675 188 703 b 151 817 188 779 175 804 b 115 836 133 825 122 824 b 113 864 111 844 111 853 b 211 942 118 890 147 922 l 197 983 b 61 892 131 963 88 929 b 28 774 36 853 28 811 b 114 675 29 713 65 675 z m 333 675 b 407 747 376 675 407 703 b 371 817 407 779 394 804 b 335 836 353 825 342 824 b 332 864 331 844 331 853 b 431 942 338 890 367 922 l 417 983 b 281 892 350 963 307 929 b 247 774 256 853 247 811 b 333 675 249 713 285 675 z "},"”":{"ha":472,"x_min":0,"x_max":0,"o":"m 138 983 b 65 911 96 983 65 956 b 101 842 65 879 78 854 b 138 822 118 833 131 835 b 139 794 142 814 142 806 b 42 717 133 768 106 736 l 56 675 b 190 767 122 696 165 729 b 225 885 217 806 225 847 b 138 983 224 946 188 983 z m 357 983 b 285 911 315 983 285 956 b 321 842 285 879 297 854 b 357 822 338 833 350 835 b 358 794 361 814 361 806 b 261 717 353 768 325 736 l 275 675 b 410 767 342 696 385 729 b 444 885 436 806 444 847 b 357 983 443 946 407 983 z "},"‘":{"ha":260,"x_min":0,"x_max":0,"o":"m 114 675 b 188 747 157 675 188 703 b 151 817 188 779 175 804 b 115 836 133 825 122 824 b 113 864 111 844 111 853 b 211 942 118 890 147 922 l 197 983 b 61 892 131 963 88 929 b 28 774 36 853 28 811 b 114 675 29 713 65 675 z "},"’":{"ha":274,"x_min":0,"x_max":0,"o":"m 144 983 b 72 911 103 983 72 956 b 108 842 72 879 85 854 b 144 822 125 833 138 835 b 146 794 149 814 149 806 b 49 717 140 768 113 736 l 63 675 b 197 767 129 696 172 729 b 232 885 224 806 232 847 b 144 983 231 946 194 983 z "},"‚":{"ha":267,"x_min":0,"x_max":0,"o":"m 138 164 b 65 92 96 164 65 136 b 101 22 65 60 78 35 b 138 3 118 14 131 15 b 139 -25 142 -6 142 -15 b 42 -103 133 -51 106 -85 l 56 -144 b 190 -53 122 -124 165 -90 b 225 65 217 -15 225 28 b 138 164 224 126 188 164 z "}," ":{"ha":354,"x_min":0,"x_max":0,"o":""},"¢":{"ha":647,"x_min":0,"x_max":0,"o":"m 613 83 l 575 138 b 422 83 543 114 489 83 l 422 631 l 424 631 b 567 582 488 631 538 603 l 603 638 b 422 710 569 665 510 704 l 422 814 l 349 814 l 349 707 b 76 356 167 682 76 518 b 349 6 76 192 167 29 l 349 -121 l 422 -121 l 422 4 b 613 83 511 11 576 51 z m 190 357 b 349 618 190 469 242 582 l 349 94 b 190 357 242 131 190 243 z "},"¤":{"ha":811,"x_min":0,"x_max":0,"o":"m 721 468 b 657 657 721 538 697 604 l 718 718 l 653 785 l 592 724 b 406 786 538 764 464 786 b 219 724 342 786 267 760 l 158 785 l 92 718 l 153 657 b 90 468 114 604 90 539 b 153 279 90 397 114 332 l 92 218 l 158 151 l 219 213 b 406 150 267 176 338 150 b 592 213 471 150 542 175 l 653 151 l 718 218 l 657 279 b 721 468 697 332 721 399 z m 406 235 b 179 468 282 235 179 340 b 406 701 179 596 282 701 b 632 468 528 701 632 596 b 406 235 632 340 528 235 z "},"$":{"ha":786,"x_min":0,"x_max":0,"o":"m 729 271 b 451 561 729 453 586 511 l 451 879 b 647 779 551 867 610 817 l 696 829 b 451 963 635 904 544 949 l 451 1082 l 375 1082 l 375 965 b 106 725 235 960 106 881 b 375 468 106 568 243 518 l 375 100 b 124 226 275 117 182 169 l 81 167 b 375 15 153 82 265 29 l 375 -131 l 451 -131 l 451 13 b 729 271 600 19 729 104 z m 219 747 b 375 882 219 824 282 874 l 375 590 b 219 747 288 624 219 664 z m 451 97 l 451 438 b 614 249 542 399 614 349 b 451 97 614 153 551 103 z "},"€":{"ha":874,"x_min":0,"x_max":0,"o":"m 626 74 b 307 360 464 74 344 181 l 579 360 l 599 435 l 296 435 b 294 485 294 451 294 468 b 297 544 294 506 296 525 l 628 544 l 650 619 l 308 619 b 622 900 347 793 464 900 b 811 840 703 900 767 872 l 853 907 b 615 989 797 950 719 989 b 188 619 396 989 233 842 l 76 619 l 76 544 l 178 544 b 175 488 176 525 175 507 b 176 435 175 469 175 451 l 76 435 l 76 360 l 188 360 b 614 -15 232 133 396 -15 b 847 60 714 -15 792 19 l 811 128 b 626 74 767 99 704 74 z "},"£":{"ha":744,"x_min":0,"x_max":0,"o":"m 669 139 b 554 89 631 101 593 89 b 347 136 474 89 438 136 b 261 119 315 136 286 129 l 260 125 b 378 332 347 167 378 250 b 363 435 378 368 372 403 l 579 435 l 579 515 l 338 515 l 293 657 b 274 768 279 700 274 735 b 425 914 274 863 328 914 l 440 914 b 501 906 460 913 479 910 l 507 968 b 396 989 467 982 431 989 b 165 767 256 989 165 904 l 165 749 b 185 649 167 718 174 683 l 225 515 l 83 515 l 83 435 l 250 435 l 254 422 b 272 315 267 383 272 349 b 96 113 272 222 222 150 l 131 14 b 286 53 168 31 226 53 b 563 -10 418 53 451 -10 b 724 86 635 -10 692 31 z "},"¥":{"ha":831,"x_min":0,"x_max":0,"o":"m 782 975 l 672 975 l 460 536 l 432 474 l 396 546 l 174 975 l 42 975 l 283 542 l 129 542 l 129 467 l 326 467 l 340 440 b 364 360 356 414 361 393 l 129 360 l 129 285 l 365 285 l 365 0 l 481 0 l 481 285 l 694 285 l 694 360 l 482 360 b 510 453 485 394 493 421 l 518 467 l 694 467 l 694 542 l 557 542 z "},"≈":{"ha":985,"x_min":0,"x_max":0,"o":"m 508 511 l 458 528 b 283 569 407 546 340 569 b 174 488 238 569 196 549 l 104 488 b 288 661 121 586 190 663 b 478 618 344 661 407 642 l 526 603 b 701 561 578 586 644 561 b 813 642 747 561 789 582 l 881 642 b 697 468 865 547 800 468 b 508 511 642 468 578 489 z m 508 261 l 458 278 b 283 319 407 296 340 319 b 174 238 238 319 196 299 l 104 238 b 288 411 121 336 190 413 b 478 368 344 411 407 392 l 526 353 b 701 311 578 336 644 311 b 813 392 747 311 789 332 l 881 392 b 697 218 865 297 800 218 b 508 261 642 218 578 239 z "},"~":{"ha":871,"x_min":0,"x_max":0,"o":"m 714 533 l 794 500 b 606 340 764 406 694 340 b 429 400 539 340 479 372 b 268 463 375 429 324 463 b 157 371 224 463 183 439 l 76 407 b 267 560 108 499 181 560 b 472 485 350 560 413 517 b 606 439 514 460 556 439 b 714 533 649 439 689 463 z "},"÷":{"ha":904,"x_min":0,"x_max":0,"o":"m 451 606 b 536 690 499 606 536 644 b 451 775 536 738 499 775 b 368 690 406 775 368 738 b 451 606 368 644 406 606 z m 88 486 l 88 393 l 817 393 l 817 486 z m 451 103 b 536 188 499 103 536 142 b 451 272 536 235 499 272 b 368 188 406 272 368 235 b 451 103 368 142 406 103 z "},"∅":{"ha":1003,"x_min":0,"x_max":0,"o":"m 822 692 l 888 757 l 840 806 l 776 742 b 501 849 703 808 607 849 b 85 418 271 849 85 656 b 181 144 85 314 121 219 l 115 81 l 163 32 l 226 96 b 501 -11 300 29 396 -11 b 918 418 732 -11 918 181 b 822 692 918 522 882 618 z m 160 418 b 501 778 160 617 313 778 b 725 690 588 778 665 744 l 232 197 b 160 418 188 258 160 335 z m 501 60 b 278 147 415 60 338 93 l 771 640 b 843 418 815 579 843 501 b 501 60 843 221 690 60 z "},"=":{"ha":1011,"x_min":0,"x_max":0,"o":"m 139 631 l 139 536 l 872 536 l 872 631 z m 139 340 l 139 246 l 872 246 l 872 340 z "},">":{"ha":833,"x_min":0,"x_max":0,"o":"m 118 764 l 118 674 l 647 438 l 118 203 l 118 111 l 750 397 l 750 481 z "},"≥":{"ha":897,"x_min":0,"x_max":0,"o":"m 806 499 l 118 764 l 118 674 l 694 454 l 118 236 l 118 144 l 806 411 z m 118 90 l 118 0 l 807 0 l 807 90 z "},"∞":{"ha":900,"x_min":0,"x_max":0,"o":"m 657 269 b 831 444 761 269 831 340 b 658 621 831 550 761 621 b 446 503 568 621 499 561 b 246 621 390 569 328 621 b 69 444 140 621 69 550 b 240 274 69 342 138 274 b 446 386 322 274 390 324 b 657 269 497 329 569 269 z m 247 351 b 153 444 190 351 153 389 b 247 538 153 500 190 538 b 397 444 301 538 356 494 b 247 351 354 393 300 351 z m 651 351 b 494 444 600 351 540 392 b 653 538 540 497 599 538 b 747 446 710 538 747 500 b 651 351 747 389 708 351 z "},"∫":{"ha":681,"x_min":0,"x_max":0,"o":"m 376 385 b 286 -244 376 -82 363 -175 b 200 -278 261 -267 232 -278 b 110 -247 161 -278 131 -267 b 83 -189 93 -232 83 -211 b 131 -139 83 -158 100 -139 b 235 -215 192 -139 188 -215 b 281 -112 261 -215 281 -187 b 276 464 281 -99 276 129 b 367 1078 276 929 290 1007 b 453 1111 392 1100 421 1111 b 543 1081 492 1111 522 1099 b 569 1021 560 1065 569 1044 b 522 971 569 992 553 971 b 418 1049 461 971 465 1049 b 372 944 392 1049 372 1019 b 376 385 372 931 376 707 z "},"<":{"ha":833,"x_min":0,"x_max":0,"o":"m 715 764 l 83 481 l 83 397 l 715 111 l 715 203 l 188 438 l 715 674 z "},"≤":{"ha":897,"x_min":0,"x_max":0,"o":"m 779 764 l 92 499 l 92 411 l 779 144 l 779 236 l 203 454 l 779 674 z m 90 0 l 779 0 l 779 90 l 90 90 z "},"¬":{"ha":935,"x_min":0,"x_max":0,"o":"m 76 572 l 76 482 l 756 482 l 756 163 l 844 163 l 844 482 l 844 572 z "},"−":{"ha":893,"x_min":0,"x_max":0,"o":"m 76 486 l 76 393 l 817 393 l 817 486 z "},"×":{"ha":733,"x_min":0,"x_max":0,"o":"m 671 667 l 607 731 l 367 489 l 126 731 l 63 667 l 303 426 l 63 186 l 126 122 l 367 363 l 607 122 l 671 186 l 429 426 z "},"≠":{"ha":914,"x_min":0,"x_max":0,"o":"m 872 536 l 872 631 l 611 631 l 694 792 l 614 832 l 511 631 l 139 631 l 139 536 l 464 536 l 364 340 l 139 340 l 139 246 l 315 246 l 228 74 l 307 33 l 415 246 l 872 246 l 872 340 l 464 340 l 564 536 z "},"∂":{"ha":743,"x_min":0,"x_max":0,"o":"m 317 985 l 314 985 b 86 901 238 985 150 958 l 121 847 b 300 908 174 888 238 910 b 551 518 504 903 543 697 l 536 504 b 76 294 408 668 76 579 b 356 -12 76 122 189 -15 b 664 433 563 -8 664 196 b 317 985 664 629 618 985 z m 361 72 b 188 292 253 72 188 168 b 554 365 188 528 471 576 b 361 72 550 239 507 72 z "},"%":{"ha":1153,"x_min":0,"x_max":0,"o":"m 313 985 b 90 735 190 985 90 893 b 313 486 90 575 190 486 b 536 735 436 486 536 575 b 313 985 536 893 436 985 z m 849 975 l 229 0 l 340 0 l 958 975 z m 313 564 b 188 735 239 564 188 621 b 313 907 188 847 239 907 b 438 735 386 907 438 847 b 313 564 438 621 386 564 z m 881 489 b 658 239 758 489 658 397 b 881 -10 658 79 758 -10 b 1104 239 1004 -10 1104 79 b 881 489 1104 397 1004 489 z m 881 68 b 756 239 807 68 756 125 b 881 411 756 351 807 411 b 1006 239 954 411 1006 351 b 881 68 1006 125 954 68 z "},"‰":{"ha":1657,"x_min":0,"x_max":0,"o":"m 313 985 b 90 735 190 985 90 893 b 313 486 90 575 190 486 b 536 735 436 486 536 575 b 313 985 536 893 436 985 z m 849 975 l 229 0 l 340 0 l 958 975 z m 313 564 b 188 735 239 564 188 621 b 313 907 188 847 239 907 b 438 735 386 907 438 847 b 313 564 438 621 386 564 z m 881 489 b 658 239 758 489 658 397 b 881 -10 658 79 758 -10 b 1104 239 1004 -10 1104 79 b 881 489 1104 397 1004 489 z m 1406 489 b 1183 239 1283 489 1183 397 b 1406 -10 1183 79 1283 -10 b 1629 239 1529 -10 1629 79 b 1406 489 1629 397 1529 489 z m 881 68 b 756 239 807 68 756 125 b 881 411 756 351 807 411 b 1006 239 954 411 1006 351 b 881 68 1006 125 954 68 z m 1406 68 b 1281 239 1332 68 1281 125 b 1406 411 1281 351 1332 411 b 1531 239 1479 411 1531 351 b 1406 68 1531 125 1479 68 z "},"+":{"ha":938,"x_min":0,"x_max":0,"o":"m 840 486 l 515 486 l 515 817 l 422 817 l 422 486 l 97 486 l 97 394 l 422 394 l 422 65 l 515 65 l 515 394 l 840 394 z "},"±":{"ha":896,"x_min":0,"x_max":0,"o":"m 494 554 l 494 829 l 401 829 l 401 554 l 90 554 l 90 463 l 401 463 l 401 189 l 494 189 l 494 463 l 806 463 l 806 554 z m 90 0 l 806 0 l 806 92 l 90 92 z "},"∏":{"ha":928,"x_min":0,"x_max":0,"o":"m 90 1111 l 90 -278 l 185 -278 l 185 1017 l 743 1017 l 743 -278 l 838 -278 l 838 1017 l 838 1111 z "},"√":{"ha":964,"x_min":0,"x_max":0,"o":"m 915 1111 l 819 1111 l 472 -129 l 451 -196 b 429 -128 446 -175 439 -151 l 258 272 l 76 185 l 114 103 l 204 147 l 393 -278 l 515 -278 z "},"∑":{"ha":838,"x_min":0,"x_max":0,"o":"m 775 1111 l 63 1111 l 63 1035 l 468 460 l 63 -201 l 63 -278 l 775 -278 l 775 -197 l 178 -197 l 582 460 l 181 1031 l 775 1031 z "},"↑":{"ha":1250,"x_min":0,"x_max":0,"o":"m 1042 618 l 635 988 l 228 618 l 258 581 l 592 799 l 590 0 l 679 0 l 678 799 l 1011 581 z "},"↗":{"ha":1250,"x_min":0,"x_max":0,"o":"m 1006 308 l 979 857 l 431 883 l 425 836 l 815 754 l 222 163 l 285 100 l 876 693 l 957 303 z "},"→":{"ha":1250,"x_min":0,"x_max":0,"o":"m 760 907 l 722 876 l 940 543 l 131 544 l 131 457 l 940 457 l 722 124 l 760 94 l 1129 500 z "},"↘":{"ha":1250,"x_min":0,"x_max":0,"o":"m 939 682 l 858 292 l 267 885 l 204 822 l 797 231 l 407 150 l 413 101 l 961 128 l 988 676 z "},"↓":{"ha":1250,"x_min":0,"x_max":0,"o":"m 1007 396 l 674 176 l 675 975 l 586 975 l 588 176 l 254 396 l 224 357 l 631 -12 l 1038 358 z "},"↙":{"ha":1250,"x_min":0,"x_max":0,"o":"m 996 822 l 933 885 l 342 292 l 261 682 l 213 676 l 239 128 l 788 101 l 793 150 l 403 231 z "},"←":{"ha":1250,"x_min":0,"x_max":0,"o":"m 1125 542 l 315 540 l 535 874 l 496 904 l 126 497 l 496 90 l 535 121 l 315 454 l 1125 454 z "},"↖":{"ha":1250,"x_min":0,"x_max":0,"o":"m 1028 163 l 435 754 l 825 836 l 819 883 l 271 857 l 244 308 l 293 303 l 374 693 l 965 100 z "},"↔":{"ha":1250,"x_min":0,"x_max":0,"o":"m 815 904 l 776 874 l 994 542 l 253 540 l 472 874 l 433 904 l 64 497 l 433 92 l 472 121 l 253 454 l 994 454 l 776 121 l 815 92 l 1185 497 z "},"↕":{"ha":1250,"x_min":0,"x_max":0,"o":"m 665 154 l 667 817 l 1001 597 l 1032 636 l 625 1006 l 219 636 l 249 597 l 585 817 l 585 154 l 249 375 l 219 338 l 625 -33 l 1032 338 l 1001 375 z "},"◊":{"ha":693,"x_min":0,"x_max":0,"o":"m 383 74 l 603 493 l 383 913 l 307 913 l 90 493 l 307 74 z m 343 178 l 181 493 l 343 808 l 506 493 z "},"|":{"ha":399,"x_min":0,"x_max":0,"o":"m 160 -278 l 239 -278 l 239 1064 l 160 1064 z "},"¦":{"ha":396,"x_min":0,"x_max":0,"o":"m 160 497 l 236 497 l 236 1064 l 160 1064 z m 236 351 l 160 351 l 160 -278 l 236 -278 z "},"@":{"ha":1453,"x_min":0,"x_max":0,"o":"m 1021 600 l 932 600 l 922 571 b 904 547 918 557 915 547 b 886 557 899 547 894 549 b 825 601 871 571 849 590 b 736 622 797 614 765 622 b 435 297 563 622 435 488 b 706 6 435 140 531 6 b 901 115 804 6 869 58 b 1063 6 919 50 974 6 b 1335 378 1228 6 1335 175 b 754 954 1335 710 1096 954 b 111 314 443 954 111 738 b 706 -278 111 -76 408 -278 b 1103 -149 861 -278 997 -231 l 1064 -92 b 707 -200 972 -161 850 -200 b 215 303 413 -200 215 3 b 754 874 215 683 478 874 b 1257 368 1008 874 1257 704 b 1256 331 1257 356 1256 343 b 1075 76 1249 210 1176 76 b 999 171 1025 76 996 103 z m 726 79 b 549 293 628 79 549 150 b 753 550 549 458 636 550 b 901 392 839 550 906 475 l 896 260 b 726 79 889 161 821 79 z "},"&":{"ha":951,"x_min":0,"x_max":0,"o":"m 764 458 b 756 475 757 464 756 468 b 765 493 756 481 757 485 b 861 617 818 543 847 579 b 851 758 879 665 874 719 l 793 747 b 782 661 797 722 799 694 b 669 533 765 625 726 582 b 510 368 615 485 538 428 b 515 229 489 322 496 263 l 578 244 b 592 329 574 278 576 306 b 689 424 607 350 636 378 b 751 275 731 385 751 333 b 485 76 751 175 668 76 b 210 285 296 76 210 181 b 443 492 210 399 306 492 l 469 492 l 469 576 l 451 576 b 257 744 340 576 257 651 b 439 900 257 847 342 900 b 643 818 517 900 588 869 l 692 869 b 426 986 638 932 549 986 b 125 753 275 986 125 903 b 265 554 125 643 197 588 b 276 540 272 550 276 547 b 265 528 276 535 272 531 b 74 275 168 500 74 413 b 478 -12 74 97 247 -12 b 863 269 715 -12 863 107 b 764 458 863 351 821 421 z "},"¶":{"ha":929,"x_min":0,"x_max":0,"o":"m 736 975 l 499 975 l 439 975 l 378 975 b 138 707 244 975 138 854 b 378 438 138 557 246 439 l 419 438 l 419 -221 l 499 -221 l 499 900 l 656 900 l 656 -221 l 736 -221 z "},"©":{"ha":1219,"x_min":0,"x_max":0,"o":"m 1115 489 b 610 -15 1115 208 907 -15 b 104 489 313 -15 104 208 b 610 989 104 767 310 989 b 1115 489 910 989 1115 767 z m 1019 486 b 614 918 1019 724 875 918 b 201 485 361 918 201 735 b 610 56 201 236 360 56 b 1019 486 858 56 1019 235 z m 786 331 l 821 290 b 618 199 821 290 751 199 b 356 485 456 199 358 324 b 621 776 353 644 456 776 b 808 697 744 776 808 697 l 776 653 b 633 710 776 653 728 710 b 499 644 567 710 524 678 b 453 486 469 604 453 549 b 631 264 453 349 535 264 b 786 331 733 264 786 331 z "},"®":{"ha":1219,"x_min":0,"x_max":0,"o":"m 1115 489 b 610 -15 1115 208 907 -15 b 104 489 313 -15 104 208 b 610 989 104 767 310 989 b 1115 489 910 989 1115 767 z m 1019 486 b 614 918 1019 724 875 918 b 201 485 361 918 201 735 b 610 56 201 236 360 56 b 1019 486 858 56 1019 235 z m 871 228 l 788 399 b 711 479 768 440 747 465 b 703 489 706 482 703 485 b 711 496 703 493 707 496 b 831 626 786 513 831 561 b 636 778 831 721 757 778 l 419 778 l 419 228 l 504 228 l 504 465 l 582 465 b 650 453 611 465 632 464 b 699 389 672 439 686 414 b 774 228 739 307 774 228 z m 631 526 l 504 526 l 504 718 l 631 718 b 739 624 708 718 739 672 b 631 526 739 574 708 526 z "},"§":{"ha":771,"x_min":0,"x_max":0,"o":"m 546 139 b 667 340 619 178 667 249 b 243 767 667 622 243 558 b 388 907 243 863 310 907 b 575 818 454 907 528 875 l 624 864 b 383 988 563 942 469 988 b 135 764 253 988 135 908 b 240 569 135 668 181 611 b 104 376 164 538 104 471 b 546 -57 104 82 546 139 b 390 -190 546 -146 475 -190 b 163 -75 311 -190 221 -149 l 114 -125 b 403 -272 185 -221 301 -272 b 654 -51 535 -272 654 -196 b 546 139 654 42 608 97 z m 211 385 b 317 528 211 465 257 511 b 563 336 432 472 563 442 b 465 181 563 263 526 206 b 211 385 344 235 211 267 z "},"™":{"ha":936,"x_min":0,"x_max":0,"o":"m 79 917 l 207 917 l 207 561 l 283 561 l 283 917 l 411 917 l 411 975 l 79 975 z m 821 975 l 704 767 l 581 975 l 492 975 l 492 561 l 557 561 l 557 882 l 682 674 l 713 674 l 833 893 l 833 561 l 908 561 l 908 975 z "},"°":{"ha":599,"x_min":0,"x_max":0,"o":"m 314 546 b 536 768 436 546 536 646 b 314 992 536 892 436 992 b 90 768 190 992 90 892 b 314 546 90 646 190 546 z m 314 626 b 174 768 236 626 174 690 b 314 911 174 847 236 911 b 453 768 390 911 453 847 b 314 626 453 690 390 626 z "},"^":{"ha":690,"x_min":0,"x_max":0,"o":"m 628 510 l 385 979 l 304 979 l 63 510 l 151 510 l 339 875 l 526 510 z "},"†":{"ha":704,"x_min":0,"x_max":0,"o":"m 656 699 l 386 690 l 396 975 l 308 975 l 319 690 l 49 699 l 49 618 l 319 626 l 307 -222 l 397 -222 l 385 626 l 656 618 z "},"‡":{"ha":760,"x_min":0,"x_max":0,"o":"m 683 618 l 683 699 l 414 690 l 424 975 l 336 975 l 347 690 l 76 699 l 76 618 l 347 626 l 347 206 l 76 214 l 76 133 l 347 142 l 335 -222 l 425 -222 l 414 142 l 683 133 l 683 214 l 413 206 l 413 626 z "},"̈":{"ha":0,"x_min":0,"x_max":0,"o":"m -408 1054 b -335 1128 -368 1054 -335 1088 b -408 1201 -335 1168 -368 1201 b -482 1128 -449 1201 -482 1168 b -408 1054 -482 1088 -449 1054 z m -126 1054 b -53 1128 -86 1054 -53 1088 b -126 1201 -53 1168 -86 1201 b -200 1128 -167 1201 -200 1168 b -126 1054 -200 1088 -167 1054 z "},"̇":{"ha":0,"x_min":0,"x_max":0,"o":"m -142 1053 b -62 1132 -97 1053 -62 1089 b -142 1211 -62 1176 -97 1211 b -221 1132 -185 1211 -221 1176 b -142 1053 -221 1089 -185 1053 z "},"̀":{"ha":0,"x_min":0,"x_max":0,"o":"m -228 1207 l -96 1035 l -35 1035 l -101 1207 z "},"́":{"ha":0,"x_min":0,"x_max":0,"o":"m -35 1207 l -161 1207 l -228 1035 l -167 1035 z "},"̋":{"ha":0,"x_min":0,"x_max":0,"o":"m -274 1207 l -400 1207 l -467 1035 l -406 1035 z m -83 1207 l -210 1207 l -276 1035 l -215 1035 z "},"̂":{"ha":0,"x_min":0,"x_max":0,"o":"m -37 1033 l -217 1218 l -260 1218 l -437 1033 l -385 1033 l -236 1131 l -99 1033 z "},"̌":{"ha":0,"x_min":0,"x_max":0,"o":"m -92 1218 l -237 1125 l -374 1218 l -440 1218 l -260 1033 l -217 1033 l -35 1218 z "},"̆":{"ha":0,"x_min":0,"x_max":0,"o":"m -49 1213 b -233 1029 -46 1111 -118 1029 b -418 1213 -351 1029 -421 1111 l -356 1213 b -233 1111 -356 1156 -308 1111 b -112 1213 -158 1111 -112 1156 z "},"̊":{"ha":0,"x_min":0,"x_max":0,"o":"m -76 1138 b -204 1033 -76 1069 -129 1033 b -332 1138 -279 1033 -332 1069 b -204 1246 -332 1208 -279 1246 b -76 1138 -129 1246 -76 1210 z m -137 1138 b -204 1201 -136 1175 -162 1201 b -271 1138 -244 1201 -271 1176 b -204 1078 -271 1101 -244 1078 b -137 1138 -164 1078 -136 1100 z "},"̃":{"ha":0,"x_min":0,"x_max":0,"o":"m -375 1033 l -429 1033 b -318 1183 -425 1119 -386 1183 b -225 1144 -286 1183 -257 1163 b -154 1111 -199 1128 -174 1111 b -103 1178 -132 1111 -111 1126 l -49 1178 b -161 1028 -51 1090 -89 1028 b -258 1067 -193 1028 -228 1047 b -328 1100 -286 1085 -306 1100 b -375 1033 -353 1100 -369 1079 z "},"̄":{"ha":0,"x_min":0,"x_max":0,"o":"m -533 1140 l -533 1064 l -76 1064 l -76 1140 z "},"̒":{"ha":0,"x_min":0,"x_max":0,"o":"m -126 1017 b -100 1140 -51 1017 -36 1113 b -131 1181 -114 1149 -136 1151 b -49 1231 -125 1197 -100 1219 l -60 1269 b -207 1106 -178 1240 -207 1161 b -126 1017 -207 1056 -178 1017 z "},"̦":{"ha":0,"x_min":0,"x_max":0,"o":"m -112 -58 b -139 -181 -187 -58 -203 -153 b -108 -222 -125 -190 -103 -193 b -190 -272 -114 -237 -139 -261 l -181 -311 b -35 -158 -61 -287 -36 -212 b -112 -58 -35 -101 -64 -58 z "},"̧":{"ha":0,"x_min":0,"x_max":0,"o":"m -178 -282 b -35 -171 -101 -282 -35 -243 b -153 -60 -35 -106 -83 -60 b -171 -61 -158 -60 -165 -60 b -182 -60 -176 -61 -181 -61 b -182 -46 -185 -57 -185 -51 l -147 10 l -193 33 l -286 -97 l -244 -135 b -183 -111 -228 -119 -206 -111 b -122 -167 -146 -111 -122 -133 b -194 -222 -122 -200 -150 -222 b -308 -178 -231 -222 -275 -206 l -337 -214 b -178 -282 -294 -261 -233 -282 z "},"̨":{"ha":0,"x_min":0,"x_max":0,"o":"m -42 -182 b -140 -219 -72 -206 -108 -219 b -210 -150 -179 -219 -210 -197 b -71 0 -210 -79 -131 -25 l -133 7 b -311 -162 -185 -8 -311 -51 b -169 -279 -311 -240 -243 -279 b -35 -231 -122 -279 -71 -262 z "},"̵":{"ha":0,"x_min":0,"x_max":0,"o":"m -506 453 l -506 378 l -76 378 l -76 453 z "},"̶":{"ha":0,"x_min":0,"x_max":0,"o":"m -582 453 l -56 453 l -56 378 l -582 378 z "},"´":{"ha":833,"x_min":0,"x_max":0,"o":"m 228 1207 l 101 1207 l 35 1035 l 96 1035 z "},"˘":{"ha":833,"x_min":0,"x_max":0,"o":"m 418 1213 b 233 1029 421 1111 349 1029 b 49 1213 115 1029 46 1111 l 111 1213 b 233 1111 111 1156 158 1111 b 354 1213 308 1111 354 1156 z "},"ˇ":{"ha":833,"x_min":0,"x_max":0,"o":"m 383 1218 l 238 1125 l 101 1218 l 35 1218 l 215 1033 l 258 1033 l 440 1218 z "},"¸":{"ha":833,"x_min":0,"x_max":0,"o":"m 196 -282 b 339 -171 272 -282 339 -243 b 221 -60 339 -106 290 -60 b 203 -61 215 -60 208 -60 b 192 -60 197 -61 193 -61 b 192 -46 189 -57 189 -51 l 226 10 l 181 33 l 88 -97 l 129 -135 b 190 -111 146 -119 168 -111 b 251 -167 228 -111 251 -133 b 179 -222 251 -200 224 -222 b 65 -178 143 -222 99 -206 l 36 -214 b 196 -282 79 -261 140 -282 z "},"ˆ":{"ha":833,"x_min":0,"x_max":0,"o":"m 438 1033 l 258 1218 l 215 1218 l 38 1033 l 90 1033 l 239 1131 l 376 1033 z "},"¨":{"ha":833,"x_min":0,"x_max":0,"o":"m 126 1054 b 200 1128 167 1054 200 1088 b 126 1201 200 1168 167 1201 b 53 1128 86 1201 53 1168 b 126 1054 53 1088 86 1054 z m 408 1054 b 482 1128 449 1054 482 1088 b 408 1201 482 1168 449 1201 b 335 1128 368 1201 335 1168 b 408 1054 335 1088 368 1054 z "},"˙":{"ha":833,"x_min":0,"x_max":0,"o":"m 142 1053 b 221 1132 186 1053 221 1089 b 142 1211 221 1176 186 1211 b 63 1132 99 1211 63 1176 b 142 1053 63 1089 99 1053 z "},"`":{"ha":833,"x_min":0,"x_max":0,"o":"m 35 1207 l 167 1035 l 228 1035 l 161 1207 z "},"˝":{"ha":833,"x_min":0,"x_max":0,"o":"m 276 1207 l 150 1207 l 83 1035 l 144 1035 z m 467 1207 l 340 1207 l 274 1035 l 335 1035 z "},"¯":{"ha":833,"x_min":0,"x_max":0,"o":"m 76 1140 l 76 1064 l 533 1064 l 533 1140 z "},"˛":{"ha":833,"x_min":0,"x_max":0,"o":"m 304 -182 b 206 -219 274 -206 238 -219 b 136 -150 167 -219 136 -197 b 275 0 136 -79 215 -25 l 213 7 b 35 -162 161 -8 35 -51 b 176 -279 35 -240 103 -279 b 311 -231 224 -279 275 -262 z "},"˚":{"ha":833,"x_min":0,"x_max":0,"o":"m 335 1138 b 207 1033 335 1069 282 1033 b 79 1138 132 1033 79 1069 b 207 1246 79 1208 132 1246 b 335 1138 282 1246 335 1210 z m 274 1138 b 207 1201 275 1175 249 1201 b 140 1138 167 1201 140 1176 b 207 1078 140 1101 167 1078 b 274 1138 247 1078 275 1100 z "},"˜":{"ha":833,"x_min":0,"x_max":0,"o":"m 103 1033 l 49 1033 b 160 1183 53 1119 92 1183 b 253 1144 192 1183 221 1163 b 324 1111 279 1128 304 1111 b 375 1178 346 1111 367 1126 l 429 1178 b 317 1028 426 1090 389 1028 b 219 1067 285 1028 250 1047 b 150 1100 192 1085 172 1100 b 103 1033 125 1100 108 1079 z "}}}
